<svg width="318" height="161" viewBox="0 0 318 161" fill="none" xmlns="http://www.w3.org/2000/svg">
<g filter="url(#filter0_d_434_110)">
<rect x="4" width="310" height="153" rx="15" fill="url(#paint0_linear_434_110)"/>
<rect x="6.5" y="2.5" width="305" height="148" rx="12.5" stroke="url(#paint1_linear_434_110)" stroke-width="5"/>
</g>
<path d="M31.87 53.15C30.62 53.15 29.615 52.99 28.855 52.67V51.23C29.285 51.39 29.745 51.52 30.235 51.62C30.735 51.72 31.23 51.77 31.72 51.77C32.49 51.77 33.065 51.68 33.445 51.5C33.835 51.32 34.03 50.96 34.03 50.42C34.03 50.09 33.95 49.825 33.79 49.625C33.63 49.425 33.365 49.255 32.995 49.115C32.625 48.965 32.115 48.81 31.465 48.65C30.425 48.38 29.695 48.04 29.275 47.63C28.855 47.21 28.645 46.635 28.645 45.905C28.645 45.055 28.955 44.39 29.575 43.91C30.195 43.43 31.12 43.19 32.35 43.19C32.91 43.19 33.435 43.23 33.925 43.31C34.425 43.39 34.815 43.48 35.095 43.58V45.02C34.335 44.73 33.495 44.585 32.575 44.585C31.855 44.585 31.295 44.68 30.895 44.87C30.495 45.06 30.295 45.405 30.295 45.905C30.295 46.195 30.365 46.43 30.505 46.61C30.645 46.79 30.885 46.945 31.225 47.075C31.575 47.205 32.055 47.35 32.665 47.51C33.455 47.71 34.065 47.95 34.495 48.23C34.935 48.5 35.24 48.82 35.41 49.19C35.59 49.55 35.68 49.96 35.68 50.42C35.68 51.27 35.365 51.94 34.735 52.43C34.105 52.91 33.15 53.15 31.87 53.15ZM40.7603 53.15C39.5103 53.15 38.5653 52.835 37.9253 52.205C37.2853 51.565 36.9653 50.645 36.9653 49.445C36.9653 48.195 37.3153 47.265 38.0153 46.655C38.7253 46.045 39.6703 45.74 40.8503 45.74C41.3403 45.74 41.7503 45.775 42.0803 45.845C42.4203 45.915 42.7453 46.025 43.0553 46.175V47.39C42.5353 47.13 41.9053 47 41.1653 47C40.3453 47 39.7153 47.185 39.2753 47.555C38.8353 47.915 38.6153 48.545 38.6153 49.445C38.6153 50.295 38.8103 50.92 39.2003 51.32C39.5903 51.71 40.2353 51.905 41.1353 51.905C41.8453 51.905 42.4903 51.77 43.0703 51.5V52.745C42.7403 52.875 42.3853 52.975 42.0053 53.045C41.6353 53.115 41.2203 53.15 40.7603 53.15ZM44.3698 53V42.89H46.0048V46.58C46.3148 46.33 46.6848 46.13 47.1148 45.98C47.5448 45.82 48.0298 45.74 48.5698 45.74C49.4698 45.74 50.1348 45.955 50.5648 46.385C50.9948 46.815 51.2098 47.485 51.2098 48.395V53H49.5898V48.47C49.5898 47.92 49.4698 47.535 49.2298 47.315C48.9998 47.095 48.5948 46.985 48.0148 46.985C47.6548 46.985 47.2898 47.065 46.9198 47.225C46.5498 47.375 46.2448 47.575 46.0048 47.825V53H44.3698ZM56.3002 53.15C55.0202 53.15 54.0802 52.83 53.4802 52.19C52.8902 51.55 52.5952 50.635 52.5952 49.445C52.5952 48.255 52.8952 47.34 53.4952 46.7C54.0952 46.06 55.0302 45.74 56.3002 45.74C57.5802 45.74 58.5202 46.06 59.1202 46.7C59.7202 47.34 60.0202 48.255 60.0202 49.445C60.0202 50.635 59.7202 51.55 59.1202 52.19C58.5302 52.83 57.5902 53.15 56.3002 53.15ZM56.3002 51.77C57.0502 51.77 57.5802 51.59 57.8902 51.23C58.2102 50.86 58.3702 50.265 58.3702 49.445C58.3702 48.625 58.2102 48.035 57.8902 47.675C57.5802 47.315 57.0502 47.135 56.3002 47.135C55.5602 47.135 55.0302 47.315 54.7102 47.675C54.4002 48.035 54.2452 48.625 54.2452 49.445C54.2452 50.265 54.4002 50.86 54.7102 51.23C55.0302 51.59 55.5602 51.77 56.3002 51.77ZM65.016 53.15C63.736 53.15 62.796 52.83 62.196 52.19C61.606 51.55 61.311 50.635 61.311 49.445C61.311 48.255 61.611 47.34 62.211 46.7C62.811 46.06 63.746 45.74 65.016 45.74C66.296 45.74 67.236 46.06 67.836 46.7C68.436 47.34 68.736 48.255 68.736 49.445C68.736 50.635 68.436 51.55 67.836 52.19C67.246 52.83 66.306 53.15 65.016 53.15ZM65.016 51.77C65.766 51.77 66.296 51.59 66.606 51.23C66.926 50.86 67.086 50.265 67.086 49.445C67.086 48.625 66.926 48.035 66.606 47.675C66.296 47.315 65.766 47.135 65.016 47.135C64.276 47.135 63.746 47.315 63.426 47.675C63.116 48.035 62.961 48.625 62.961 49.445C62.961 50.265 63.116 50.86 63.426 51.23C63.746 51.59 64.276 51.77 65.016 51.77ZM73.7318 53.15C72.4518 53.15 71.5118 52.83 70.9118 52.19C70.3218 51.55 70.0268 50.635 70.0268 49.445C70.0268 48.255 70.3268 47.34 70.9268 46.7C71.5268 46.06 72.4618 45.74 73.7318 45.74C75.0118 45.74 75.9518 46.06 76.5518 46.7C77.1518 47.34 77.4518 48.255 77.4518 49.445C77.4518 50.635 77.1518 51.55 76.5518 52.19C75.9618 52.83 75.0218 53.15 73.7318 53.15ZM73.7318 51.77C74.4818 51.77 75.0118 51.59 75.3218 51.23C75.6418 50.86 75.8018 50.265 75.8018 49.445C75.8018 48.625 75.6418 48.035 75.3218 47.675C75.0118 47.315 74.4818 47.135 73.7318 47.135C72.9918 47.135 72.4618 47.315 72.1418 47.675C71.8318 48.035 71.6768 48.625 71.6768 49.445C71.6768 50.265 71.8318 50.86 72.1418 51.23C72.4618 51.59 72.9918 51.77 73.7318 51.77ZM80.8127 53.15C80.2327 53.15 79.7927 53.01 79.4927 52.73C79.1927 52.44 79.0427 51.965 79.0427 51.305V42.89H80.6777V51.155C80.6777 51.435 80.7277 51.625 80.8277 51.725C80.9277 51.825 81.0777 51.875 81.2777 51.875C81.5177 51.875 81.7477 51.845 81.9677 51.785V52.97C81.7777 53.04 81.5927 53.085 81.4127 53.105C81.2427 53.135 81.0427 53.15 80.8127 53.15ZM89.2088 53V44.615H86.1188V43.34H93.9188V44.615H90.8438V53H89.2088ZM93.9548 53V45.89H95.4548L95.5448 46.715C95.8848 46.495 96.2898 46.295 96.7598 46.115C97.2298 45.935 97.6948 45.81 98.1548 45.74V46.985C97.8748 47.035 97.5698 47.11 97.2398 47.21C96.9198 47.3 96.6148 47.405 96.3248 47.525C96.0348 47.635 95.7898 47.75 95.5898 47.87V53H93.9548ZM99.9454 44.405V43.055H101.73V44.405H99.9454ZM100.08 53V47.135H99.0004L99.1504 45.89H101.715V53H100.08ZM103.623 56.24V45.89H105.033L105.123 46.595C105.443 46.305 105.793 46.09 106.173 45.95C106.553 45.81 107.003 45.74 107.523 45.74C108.543 45.74 109.338 46.02 109.908 46.58C110.478 47.13 110.763 48.045 110.763 49.325C110.763 50.605 110.468 51.565 109.878 52.205C109.288 52.835 108.483 53.15 107.463 53.15C106.603 53.15 105.868 52.95 105.258 52.55V56.24H103.623ZM107.043 51.92C108.423 51.92 109.113 51.05 109.113 49.31C109.113 48.47 108.958 47.875 108.648 47.525C108.338 47.165 107.818 46.985 107.088 46.985C106.358 46.985 105.748 47.235 105.258 47.735V51.29C105.488 51.48 105.743 51.635 106.023 51.755C106.313 51.865 106.653 51.92 107.043 51.92Z" fill="white"/>
<path d="M19.756 97V89.272H23.2C23.792 89.272 24.28 89.384 24.664 89.608C25.048 89.832 25.332 90.14 25.516 90.532C25.7 90.916 25.792 91.356 25.792 91.852C25.792 92.62 25.552 93.236 25.072 93.7C24.6 94.164 23.96 94.396 23.152 94.396H21.064V97H19.756ZM21.064 93.364H22.912C23.432 93.364 23.824 93.228 24.088 92.956C24.352 92.684 24.484 92.316 24.484 91.852C24.484 91.356 24.356 90.972 24.1 90.7C23.852 90.428 23.476 90.292 22.972 90.292H21.064V93.364ZM28.3758 97.12C28.0158 97.12 27.6798 97.056 27.3678 96.928C27.0638 96.8 26.8198 96.608 26.6357 96.352C26.4518 96.088 26.3598 95.764 26.3598 95.38C26.3598 94.836 26.5438 94.4 26.9118 94.072C27.2878 93.736 27.8638 93.568 28.6398 93.568H30.4638V93.316C30.4638 93.044 30.4198 92.828 30.3318 92.668C30.2518 92.508 30.0998 92.392 29.8758 92.32C29.6598 92.248 29.3398 92.212 28.9158 92.212C28.2438 92.212 27.6158 92.312 27.0318 92.512V91.54C27.2878 91.436 27.5998 91.352 27.9678 91.288C28.3358 91.224 28.7318 91.192 29.1558 91.192C29.9878 91.192 30.6198 91.36 31.0518 91.696C31.4918 92.032 31.7118 92.58 31.7118 93.34V97H30.5958L30.5118 96.424C30.2798 96.648 29.9918 96.82 29.6478 96.94C29.3118 97.06 28.8878 97.12 28.3758 97.12ZM28.7238 96.184C29.1158 96.184 29.4558 96.12 29.7438 95.992C30.0398 95.856 30.2798 95.676 30.4638 95.452V94.456H28.6638C28.2798 94.456 27.9998 94.532 27.8238 94.684C27.6558 94.828 27.5718 95.052 27.5718 95.356C27.5718 95.652 27.6718 95.864 27.8718 95.992C28.0718 96.12 28.3558 96.184 28.7238 96.184ZM35.9583 97.12C34.9583 97.12 34.2023 96.868 33.6903 96.364C33.1783 95.852 32.9223 95.116 32.9223 94.156C32.9223 93.156 33.2023 92.412 33.7623 91.924C34.3303 91.436 35.0863 91.192 36.0303 91.192C36.4223 91.192 36.7503 91.22 37.0143 91.276C37.2863 91.332 37.5463 91.42 37.7943 91.54V92.512C37.3783 92.304 36.8743 92.2 36.2823 92.2C35.6263 92.2 35.1223 92.348 34.7703 92.644C34.4183 92.932 34.2423 93.436 34.2423 94.156C34.2423 94.836 34.3983 95.336 34.7103 95.656C35.0223 95.968 35.5383 96.124 36.2583 96.124C36.8263 96.124 37.3423 96.016 37.8063 95.8V96.796C37.5423 96.9 37.2583 96.98 36.9543 97.036C36.6583 97.092 36.3263 97.12 35.9583 97.12ZM38.8458 97V88.912H40.1538V93.592L42.5418 91.312H44.0418L41.7258 93.604L44.1738 97H42.7938L40.9098 94.3L40.1538 95.02V97H38.8458ZM49.3408 99.112C48.9088 99.112 48.5408 99.056 48.2368 98.944V97.972C48.3728 98.02 48.4968 98.052 48.6088 98.068C48.7288 98.084 48.8488 98.092 48.9688 98.092C49.2168 98.092 49.4168 98.052 49.5688 97.972C49.7208 97.892 49.8528 97.764 49.9648 97.588C50.0848 97.42 50.2128 97.2 50.3488 96.928L47.8168 91.312H49.1728L50.9968 95.536L52.8448 91.312H54.1888L51.8728 96.676C51.6728 97.156 51.4568 97.576 51.2248 97.936C51.0008 98.304 50.7368 98.592 50.4328 98.8C50.1368 99.008 49.7728 99.112 49.3408 99.112ZM57.4136 97.12C56.3896 97.12 55.6376 96.864 55.1576 96.352C54.6856 95.84 54.4496 95.108 54.4496 94.156C54.4496 93.204 54.6896 92.472 55.1696 91.96C55.6496 91.448 56.3976 91.192 57.4136 91.192C58.4376 91.192 59.1896 91.448 59.6696 91.96C60.1496 92.472 60.3896 93.204 60.3896 94.156C60.3896 95.108 60.1496 95.84 59.6696 96.352C59.1976 96.864 58.4456 97.12 57.4136 97.12ZM57.4136 96.016C58.0136 96.016 58.4376 95.872 58.6856 95.584C58.9416 95.288 59.0696 94.812 59.0696 94.156C59.0696 93.5 58.9416 93.028 58.6856 92.74C58.4376 92.452 58.0136 92.308 57.4136 92.308C56.8216 92.308 56.3976 92.452 56.1416 92.74C55.8936 93.028 55.7696 93.5 55.7696 94.156C55.7696 94.812 55.8936 95.288 56.1416 95.584C56.3976 95.872 56.8216 96.016 57.4136 96.016ZM63.7143 97.12C63.0343 97.12 62.5103 96.932 62.1423 96.556C61.7823 96.18 61.6023 95.628 61.6023 94.9V91.312H62.9103V94.9C62.9103 95.324 63.0143 95.636 63.2223 95.836C63.4303 96.036 63.7503 96.136 64.1823 96.136C64.5023 96.136 64.7983 96.076 65.0703 95.956C65.3423 95.836 65.5783 95.676 65.7783 95.476V91.312H67.0742V97H65.8863L65.8263 96.412C65.5703 96.612 65.2663 96.78 64.9143 96.916C64.5623 97.052 64.1623 97.12 63.7143 97.12ZM68.5998 97V91.312H69.7998L69.8718 91.972C70.1438 91.796 70.4678 91.636 70.8438 91.492C71.2198 91.348 71.5918 91.248 71.9598 91.192V92.188C71.7358 92.228 71.4918 92.288 71.2278 92.368C70.9718 92.44 70.7278 92.524 70.4958 92.62C70.2638 92.708 70.0678 92.8 69.9078 92.896V97H68.5998ZM78.7979 97.12C78.3819 97.12 78.0219 97.064 77.7179 96.952C77.4139 96.84 77.1339 96.668 76.8779 96.436L76.8059 97H75.6779V88.912H76.9859V91.684C77.4819 91.356 78.0779 91.192 78.7739 91.192C79.5819 91.192 80.2179 91.424 80.6819 91.888C81.1539 92.344 81.3899 93.084 81.3899 94.108C81.3899 95.14 81.1579 95.9 80.6939 96.388C80.2299 96.876 79.5979 97.12 78.7979 97.12ZM78.4499 96.136C79.0419 96.136 79.4579 95.968 79.6979 95.632C79.9459 95.296 80.0699 94.788 80.0699 94.108C80.0699 93.404 79.9379 92.908 79.6739 92.62C79.4099 92.332 78.9939 92.188 78.4259 92.188C77.8339 92.188 77.3539 92.352 76.9859 92.68V95.536C77.3619 95.936 77.8499 96.136 78.4499 96.136ZM84.4383 97.12C84.0783 97.12 83.7423 97.056 83.4303 96.928C83.1263 96.8 82.8823 96.608 82.6982 96.352C82.5143 96.088 82.4223 95.764 82.4223 95.38C82.4223 94.836 82.6063 94.4 82.9743 94.072C83.3503 93.736 83.9263 93.568 84.7023 93.568H86.5263V93.316C86.5263 93.044 86.4823 92.828 86.3943 92.668C86.3143 92.508 86.1623 92.392 85.9383 92.32C85.7223 92.248 85.4023 92.212 84.9783 92.212C84.3063 92.212 83.6783 92.312 83.0943 92.512V91.54C83.3503 91.436 83.6623 91.352 84.0303 91.288C84.3983 91.224 84.7943 91.192 85.2183 91.192C86.0503 91.192 86.6823 91.36 87.1143 91.696C87.5543 92.032 87.7743 92.58 87.7743 93.34V97H86.6583L86.5743 96.424C86.3423 96.648 86.0543 96.82 85.7103 96.94C85.3743 97.06 84.9503 97.12 84.4383 97.12ZM84.7863 96.184C85.1783 96.184 85.5183 96.12 85.8063 95.992C86.1023 95.856 86.3423 95.676 86.5263 95.452V94.456H84.7263C84.3423 94.456 84.0623 94.532 83.8863 94.684C83.7183 94.828 83.6343 95.052 83.6343 95.356C83.6343 95.652 83.7343 95.864 83.9343 95.992C84.1343 96.12 84.4183 96.184 84.7863 96.184ZM91.5288 99.112C91.1048 99.112 90.6808 99.084 90.2568 99.028C89.8328 98.98 89.4728 98.904 89.1768 98.8V97.792C89.4968 97.896 89.8648 97.976 90.2808 98.032C90.6968 98.088 91.0928 98.116 91.4688 98.116C92.0448 98.116 92.4648 98.084 92.7288 98.02C92.9928 97.956 93.1248 97.812 93.1248 97.588C93.1248 97.42 93.0608 97.3 92.9328 97.228C92.8048 97.164 92.5608 97.132 92.2008 97.132H90.6648C89.6328 97.132 89.1168 96.768 89.1168 96.04C89.1168 95.808 89.1848 95.592 89.3208 95.392C89.4568 95.192 89.6728 95.04 89.9688 94.936C89.6408 94.776 89.3968 94.556 89.2368 94.276C89.0848 93.996 89.0088 93.66 89.0088 93.268C89.0088 92.54 89.2248 92.012 89.6568 91.684C90.0968 91.356 90.7528 91.192 91.6248 91.192C91.8088 91.192 92.0008 91.208 92.2008 91.24C92.4008 91.264 92.5568 91.288 92.6688 91.312H94.7568L94.7208 92.164H93.7608C93.9128 92.292 94.0248 92.452 94.0968 92.644C94.1688 92.836 94.2048 93.044 94.2048 93.268C94.2048 93.876 94.0208 94.356 93.6528 94.708C93.2848 95.052 92.7288 95.224 91.9848 95.224C91.8568 95.224 91.7368 95.22 91.6248 95.212C91.5208 95.196 91.4048 95.18 91.2768 95.164C91.0368 95.188 90.8208 95.252 90.6288 95.356C90.4368 95.46 90.3408 95.6 90.3408 95.776C90.3408 95.896 90.3888 95.984 90.4848 96.04C90.5808 96.088 90.7408 96.112 90.9648 96.112H92.5608C93.1288 96.112 93.5648 96.236 93.8688 96.484C94.1808 96.724 94.3368 97.076 94.3368 97.54C94.3368 98.1 94.0928 98.5 93.6048 98.74C93.1248 98.988 92.4328 99.112 91.5288 99.112ZM91.6248 94.396C92.1448 94.396 92.5048 94.308 92.7048 94.132C92.9128 93.956 93.0168 93.656 93.0168 93.232C93.0168 92.808 92.9128 92.5 92.7048 92.308C92.5048 92.116 92.1448 92.02 91.6248 92.02C91.1368 92.02 90.7808 92.112 90.5568 92.296C90.3328 92.48 90.2208 92.792 90.2208 93.232C90.2208 93.64 90.3248 93.936 90.5328 94.12C90.7488 94.304 91.1128 94.396 91.6248 94.396ZM97.4606 97.12C97.0686 97.12 96.6926 97.092 96.3326 97.036C95.9806 96.98 95.6886 96.912 95.4566 96.832V95.728C95.7286 95.832 96.0286 95.912 96.3566 95.968C96.6846 96.024 96.9966 96.052 97.2926 96.052C97.7406 96.052 98.0606 96.012 98.2526 95.932C98.4446 95.852 98.5406 95.696 98.5406 95.464C98.5406 95.296 98.4806 95.164 98.3606 95.068C98.2486 94.972 98.0766 94.884 97.8446 94.804C97.6206 94.724 97.3326 94.628 96.9806 94.516C96.6446 94.404 96.3526 94.284 96.1046 94.156C95.8566 94.02 95.6646 93.848 95.5286 93.64C95.3926 93.432 95.3246 93.16 95.3246 92.824C95.3246 92.304 95.5126 91.904 95.8886 91.624C96.2646 91.336 96.8686 91.192 97.7006 91.192C98.0286 91.192 98.3406 91.216 98.6366 91.264C98.9326 91.312 99.1846 91.372 99.3926 91.444V92.536C99.1686 92.448 98.9206 92.38 98.6486 92.332C98.3846 92.284 98.1366 92.26 97.9046 92.26C97.4886 92.26 97.1726 92.296 96.9566 92.368C96.7486 92.44 96.6446 92.584 96.6446 92.8C96.6446 93.024 96.7526 93.184 96.9686 93.28C97.1926 93.368 97.5486 93.492 98.0366 93.652C98.4846 93.788 98.8406 93.932 99.1046 94.084C99.3686 94.236 99.5566 94.42 99.6686 94.636C99.7886 94.844 99.8486 95.116 99.8486 95.452C99.8486 96.012 99.6446 96.432 99.2366 96.712C98.8286 96.984 98.2366 97.12 97.4606 97.12ZM105.673 97.12C105.313 97.12 104.977 97.056 104.665 96.928C104.361 96.8 104.117 96.608 103.933 96.352C103.749 96.088 103.657 95.764 103.657 95.38C103.657 94.836 103.841 94.4 104.209 94.072C104.585 93.736 105.161 93.568 105.937 93.568H107.761V93.316C107.761 93.044 107.717 92.828 107.629 92.668C107.549 92.508 107.397 92.392 107.173 92.32C106.957 92.248 106.637 92.212 106.213 92.212C105.541 92.212 104.913 92.312 104.329 92.512V91.54C104.585 91.436 104.897 91.352 105.265 91.288C105.633 91.224 106.029 91.192 106.453 91.192C107.285 91.192 107.917 91.36 108.349 91.696C108.789 92.032 109.009 92.58 109.009 93.34V97H107.893L107.809 96.424C107.577 96.648 107.289 96.82 106.945 96.94C106.609 97.06 106.185 97.12 105.673 97.12ZM106.021 96.184C106.413 96.184 106.753 96.12 107.041 95.992C107.337 95.856 107.577 95.676 107.761 95.452V94.456H105.961C105.577 94.456 105.297 94.532 105.121 94.684C104.953 94.828 104.869 95.052 104.869 95.356C104.869 95.652 104.969 95.864 105.169 95.992C105.369 96.12 105.653 96.184 106.021 96.184ZM110.459 97V91.312H111.659L111.719 91.912C111.975 91.712 112.279 91.544 112.631 91.408C112.991 91.264 113.387 91.192 113.819 91.192C114.555 91.192 115.091 91.364 115.427 91.708C115.763 92.052 115.931 92.588 115.931 93.316V97H114.635V93.376C114.635 92.936 114.543 92.628 114.359 92.452C114.183 92.276 113.847 92.188 113.351 92.188C113.055 92.188 112.763 92.248 112.475 92.368C112.195 92.488 111.959 92.644 111.767 92.836V97H110.459ZM119.631 97.12C119.119 97.12 118.667 97.032 118.275 96.856C117.883 96.68 117.579 96.388 117.363 95.98C117.147 95.572 117.039 95.024 117.039 94.336C117.039 93.656 117.155 93.084 117.387 92.62C117.619 92.148 117.939 91.792 118.347 91.552C118.763 91.312 119.231 91.192 119.751 91.192C120.095 91.192 120.399 91.232 120.663 91.312C120.935 91.392 121.195 91.516 121.443 91.684V88.912H122.751V97H121.635L121.551 96.436C121.295 96.668 121.015 96.84 120.711 96.952C120.407 97.064 120.047 97.12 119.631 97.12ZM119.979 96.136C120.563 96.136 121.051 95.936 121.443 95.536V92.692C121.067 92.356 120.595 92.188 120.027 92.188C119.475 92.188 119.059 92.372 118.779 92.74C118.499 93.108 118.359 93.644 118.359 94.348C118.359 95.028 118.487 95.496 118.743 95.752C119.007 96.008 119.419 96.136 119.979 96.136ZM127.785 90.124V89.044H129.213V90.124H127.785ZM127.365 99.808C126.901 99.808 126.505 99.744 126.177 99.616V98.668C126.313 98.708 126.441 98.736 126.561 98.752C126.689 98.776 126.805 98.788 126.909 98.788C127.285 98.788 127.545 98.72 127.689 98.584C127.841 98.448 127.917 98.224 127.917 97.912V92.308H127.053L127.173 91.312H129.213V98.032C129.213 98.568 129.057 98.996 128.745 99.316C128.441 99.644 127.981 99.808 127.365 99.808ZM133.445 97.12C132.421 97.12 131.669 96.864 131.189 96.352C130.717 95.84 130.481 95.108 130.481 94.156C130.481 93.204 130.721 92.472 131.201 91.96C131.681 91.448 132.429 91.192 133.445 91.192C134.469 91.192 135.221 91.448 135.701 91.96C136.181 92.472 136.421 93.204 136.421 94.156C136.421 95.108 136.181 95.84 135.701 96.352C135.229 96.864 134.477 97.12 133.445 97.12ZM133.445 96.016C134.045 96.016 134.469 95.872 134.717 95.584C134.973 95.288 135.101 94.812 135.101 94.156C135.101 93.5 134.973 93.028 134.717 92.74C134.469 92.452 134.045 92.308 133.445 92.308C132.853 92.308 132.429 92.452 132.173 92.74C131.925 93.028 131.801 93.5 131.801 94.156C131.801 94.812 131.925 95.288 132.173 95.584C132.429 95.872 132.853 96.016 133.445 96.016ZM137.939 90.124V89.044H139.367V90.124H137.939ZM138.047 97V92.308H137.183L137.303 91.312H139.355V97H138.047ZM140.881 97V91.312H142.081L142.141 91.912C142.397 91.712 142.701 91.544 143.053 91.408C143.413 91.264 143.809 91.192 144.241 91.192C144.977 91.192 145.513 91.364 145.849 91.708C146.185 92.052 146.353 92.588 146.353 93.316V97H145.057V93.376C145.057 92.936 144.965 92.628 144.781 92.452C144.605 92.276 144.269 92.188 143.773 92.188C143.477 92.188 143.185 92.248 142.897 92.368C142.617 92.488 142.381 92.644 142.189 92.836V97H140.881ZM152.636 97.12C151.956 97.12 151.432 96.932 151.064 96.556C150.704 96.18 150.524 95.628 150.524 94.9V91.312H151.832V94.9C151.832 95.324 151.936 95.636 152.144 95.836C152.352 96.036 152.672 96.136 153.104 96.136C153.424 96.136 153.72 96.076 153.992 95.956C154.264 95.836 154.5 95.676 154.7 95.476V91.312H155.996V97H154.808L154.748 96.412C154.492 96.612 154.188 96.78 153.836 96.916C153.484 97.052 153.084 97.12 152.636 97.12ZM159.418 97.12C159.026 97.12 158.65 97.092 158.29 97.036C157.938 96.98 157.646 96.912 157.414 96.832V95.728C157.686 95.832 157.986 95.912 158.314 95.968C158.642 96.024 158.954 96.052 159.25 96.052C159.698 96.052 160.018 96.012 160.21 95.932C160.402 95.852 160.498 95.696 160.498 95.464C160.498 95.296 160.438 95.164 160.318 95.068C160.206 94.972 160.034 94.884 159.802 94.804C159.578 94.724 159.29 94.628 158.938 94.516C158.602 94.404 158.31 94.284 158.062 94.156C157.814 94.02 157.622 93.848 157.486 93.64C157.35 93.432 157.282 93.16 157.282 92.824C157.282 92.304 157.47 91.904 157.846 91.624C158.222 91.336 158.826 91.192 159.658 91.192C159.986 91.192 160.298 91.216 160.594 91.264C160.89 91.312 161.142 91.372 161.35 91.444V92.536C161.126 92.448 160.878 92.38 160.606 92.332C160.342 92.284 160.094 92.26 159.862 92.26C159.446 92.26 159.13 92.296 158.914 92.368C158.706 92.44 158.602 92.584 158.602 92.8C158.602 93.024 158.71 93.184 158.926 93.28C159.15 93.368 159.506 93.492 159.994 93.652C160.442 93.788 160.798 93.932 161.062 94.084C161.326 94.236 161.514 94.42 161.626 94.636C161.746 94.844 161.806 95.116 161.806 95.452C161.806 96.012 161.602 96.432 161.194 96.712C160.786 96.984 160.194 97.12 159.418 97.12ZM166.202 97V92.332H165.374V91.312H166.202V90.616C166.202 90.048 166.358 89.592 166.67 89.248C166.99 88.896 167.462 88.72 168.086 88.72C168.318 88.72 168.53 88.74 168.722 88.78C168.914 88.812 169.09 88.86 169.25 88.924V89.86C169.002 89.772 168.75 89.728 168.494 89.728C168.118 89.728 167.858 89.796 167.714 89.932C167.57 90.068 167.498 90.3 167.498 90.628V91.312H168.986L168.926 92.332H167.498V97H166.202ZM172.48 97.12C171.456 97.12 170.704 96.864 170.224 96.352C169.752 95.84 169.516 95.108 169.516 94.156C169.516 93.204 169.756 92.472 170.236 91.96C170.716 91.448 171.464 91.192 172.48 91.192C173.504 91.192 174.256 91.448 174.736 91.96C175.216 92.472 175.456 93.204 175.456 94.156C175.456 95.108 175.216 95.84 174.736 96.352C174.264 96.864 173.512 97.12 172.48 97.12ZM172.48 96.016C173.08 96.016 173.504 95.872 173.752 95.584C174.008 95.288 174.136 94.812 174.136 94.156C174.136 93.5 174.008 93.028 173.752 92.74C173.504 92.452 173.08 92.308 172.48 92.308C171.888 92.308 171.464 92.452 171.208 92.74C170.96 93.028 170.836 93.5 170.836 94.156C170.836 94.812 170.96 95.288 171.208 95.584C171.464 95.872 171.888 96.016 172.48 96.016ZM176.729 97V91.312H177.929L178.001 91.972C178.273 91.796 178.597 91.636 178.973 91.492C179.349 91.348 179.721 91.248 180.089 91.192V92.188C179.865 92.228 179.621 92.288 179.357 92.368C179.101 92.44 178.857 92.524 178.625 92.62C178.393 92.708 178.197 92.8 178.037 92.896V97H176.729ZM21.532 115.12C21.172 115.12 20.836 115.056 20.524 114.928C20.22 114.8 19.976 114.608 19.792 114.352C19.608 114.088 19.516 113.764 19.516 113.38C19.516 112.836 19.7 112.4 20.068 112.072C20.444 111.736 21.02 111.568 21.796 111.568H23.62V111.316C23.62 111.044 23.576 110.828 23.488 110.668C23.408 110.508 23.256 110.392 23.032 110.32C22.816 110.248 22.496 110.212 22.072 110.212C21.4 110.212 20.772 110.312 20.188 110.512V109.54C20.444 109.436 20.756 109.352 21.124 109.288C21.492 109.224 21.888 109.192 22.312 109.192C23.144 109.192 23.776 109.36 24.208 109.696C24.648 110.032 24.868 110.58 24.868 111.34V115H23.752L23.668 114.424C23.436 114.648 23.148 114.82 22.804 114.94C22.468 115.06 22.044 115.12 21.532 115.12ZM21.88 114.184C22.272 114.184 22.612 114.12 22.9 113.992C23.196 113.856 23.436 113.676 23.62 113.452V112.456H21.82C21.436 112.456 21.156 112.532 20.98 112.684C20.812 112.828 20.728 113.052 20.728 113.356C20.728 113.652 20.828 113.864 21.028 113.992C21.228 114.12 21.512 114.184 21.88 114.184ZM26.3185 115V109.312H27.5185L27.5785 109.912C27.8345 109.712 28.1385 109.544 28.4905 109.408C28.8505 109.264 29.2465 109.192 29.6785 109.192C30.4145 109.192 30.9505 109.364 31.2865 109.708C31.6225 110.052 31.7905 110.588 31.7905 111.316V115H30.4945V111.376C30.4945 110.936 30.4025 110.628 30.2185 110.452C30.0425 110.276 29.7065 110.188 29.2105 110.188C28.9145 110.188 28.6225 110.248 28.3345 110.368C28.0545 110.488 27.8185 110.644 27.6265 110.836V115H26.3185ZM38.0736 115.12C37.3936 115.12 36.8696 114.932 36.5016 114.556C36.1416 114.18 35.9616 113.628 35.9616 112.9V109.312H37.2696V112.9C37.2696 113.324 37.3736 113.636 37.5816 113.836C37.7896 114.036 38.1096 114.136 38.5416 114.136C38.8616 114.136 39.1576 114.076 39.4296 113.956C39.7016 113.836 39.9376 113.676 40.1376 113.476V109.312H41.4336V115H40.2456L40.1856 114.412C39.9296 114.612 39.6256 114.78 39.2736 114.916C38.9216 115.052 38.5216 115.12 38.0736 115.12ZM42.9591 115V109.312H44.1591L44.2191 109.912C44.4751 109.712 44.7791 109.544 45.1311 109.408C45.4911 109.264 45.8871 109.192 46.3191 109.192C47.0551 109.192 47.5911 109.364 47.9271 109.708C48.2631 110.052 48.4311 110.588 48.4311 111.316V115H47.1351V111.376C47.1351 110.936 47.0431 110.628 46.8591 110.452C46.6831 110.276 46.3471 110.188 45.8511 110.188C45.5551 110.188 45.2631 110.248 44.9751 110.368C44.6951 110.488 44.4591 110.644 44.2671 110.836V115H42.9591ZM50.2446 115V110.332H49.4166V109.312H50.2446V108.616C50.2446 108.048 50.4006 107.592 50.7126 107.248C51.0326 106.896 51.5046 106.72 52.1286 106.72C52.3606 106.72 52.5726 106.74 52.7646 106.78C52.9566 106.812 53.1326 106.86 53.2926 106.924V107.86C53.0446 107.772 52.7926 107.728 52.5366 107.728C52.1606 107.728 51.9006 107.796 51.7566 107.932C51.6126 108.068 51.5406 108.3 51.5406 108.628V109.312H53.0286L52.9686 110.332H51.5406V115H50.2446ZM56.523 115.12C55.499 115.12 54.747 114.864 54.267 114.352C53.795 113.84 53.559 113.108 53.559 112.156C53.559 111.204 53.799 110.472 54.279 109.96C54.759 109.448 55.507 109.192 56.523 109.192C57.547 109.192 58.299 109.448 58.779 109.96C59.259 110.472 59.499 111.204 59.499 112.156C59.499 113.108 59.259 113.84 58.779 114.352C58.307 114.864 57.555 115.12 56.523 115.12ZM56.523 114.016C57.123 114.016 57.547 113.872 57.795 113.584C58.051 113.288 58.179 112.812 58.179 112.156C58.179 111.5 58.051 111.028 57.795 110.74C57.547 110.452 57.123 110.308 56.523 110.308C55.931 110.308 55.507 110.452 55.251 110.74C55.003 111.028 54.879 111.5 54.879 112.156C54.879 112.812 55.003 113.288 55.251 113.584C55.507 113.872 55.931 114.016 56.523 114.016ZM60.7716 115V109.312H61.9716L62.0436 109.972C62.3156 109.796 62.6396 109.636 63.0156 109.492C63.3916 109.348 63.7636 109.248 64.1316 109.192V110.188C63.9076 110.228 63.6636 110.288 63.3996 110.368C63.1436 110.44 62.8996 110.524 62.6676 110.62C62.4356 110.708 62.2396 110.8 62.0796 110.896V115H60.7716ZM67.3881 117.112C66.9641 117.112 66.5401 117.084 66.1161 117.028C65.6921 116.98 65.3321 116.904 65.0361 116.8V115.792C65.3561 115.896 65.7241 115.976 66.1401 116.032C66.5561 116.088 66.9521 116.116 67.3281 116.116C67.9041 116.116 68.3241 116.084 68.5881 116.02C68.8521 115.956 68.9841 115.812 68.9841 115.588C68.9841 115.42 68.9201 115.3 68.7921 115.228C68.6641 115.164 68.4201 115.132 68.0601 115.132H66.5241C65.4921 115.132 64.9761 114.768 64.9761 114.04C64.9761 113.808 65.0441 113.592 65.1801 113.392C65.3161 113.192 65.5321 113.04 65.8281 112.936C65.5001 112.776 65.2561 112.556 65.0961 112.276C64.9441 111.996 64.8681 111.66 64.8681 111.268C64.8681 110.54 65.0841 110.012 65.5161 109.684C65.9561 109.356 66.6121 109.192 67.4841 109.192C67.6681 109.192 67.8601 109.208 68.0601 109.24C68.2601 109.264 68.4161 109.288 68.5281 109.312H70.6161L70.5801 110.164H69.6201C69.7721 110.292 69.8841 110.452 69.9561 110.644C70.0281 110.836 70.0641 111.044 70.0641 111.268C70.0641 111.876 69.8801 112.356 69.5121 112.708C69.1441 113.052 68.5881 113.224 67.8441 113.224C67.7161 113.224 67.5961 113.22 67.4841 113.212C67.3801 113.196 67.2641 113.18 67.1361 113.164C66.8961 113.188 66.6801 113.252 66.4881 113.356C66.2961 113.46 66.2001 113.6 66.2001 113.776C66.2001 113.896 66.2481 113.984 66.3441 114.04C66.4401 114.088 66.6001 114.112 66.8241 114.112H68.4201C68.9881 114.112 69.4241 114.236 69.7281 114.484C70.0401 114.724 70.1961 115.076 70.1961 115.54C70.1961 116.1 69.9521 116.5 69.4641 116.74C68.9841 116.988 68.2921 117.112 67.3881 117.112ZM67.4841 112.396C68.0041 112.396 68.3641 112.308 68.5641 112.132C68.7721 111.956 68.8761 111.656 68.8761 111.232C68.8761 110.808 68.7721 110.5 68.5641 110.308C68.3641 110.116 68.0041 110.02 67.4841 110.02C66.9961 110.02 66.6401 110.112 66.4161 110.296C66.1921 110.48 66.0801 110.792 66.0801 111.232C66.0801 111.64 66.1841 111.936 66.3921 112.12C66.6081 112.304 66.9721 112.396 67.4841 112.396ZM74.4915 115.12C73.4995 115.12 72.7315 114.876 72.1875 114.388C71.6435 113.9 71.3715 113.152 71.3715 112.144C71.3715 111.232 71.6035 110.512 72.0675 109.984C72.5315 109.456 73.2355 109.192 74.1795 109.192C75.0435 109.192 75.6915 109.42 76.1235 109.876C76.5635 110.324 76.7835 110.904 76.7835 111.616V112.672H72.6195C72.6835 113.224 72.8835 113.604 73.2195 113.812C73.5555 114.02 74.0675 114.124 74.7555 114.124C75.0435 114.124 75.3395 114.096 75.6435 114.04C75.9475 113.984 76.2115 113.912 76.4355 113.824V114.784C76.1795 114.896 75.8835 114.98 75.5475 115.036C75.2195 115.092 74.8675 115.12 74.4915 115.12ZM72.6195 111.82H75.6315V111.424C75.6315 111.032 75.5235 110.728 75.3075 110.512C75.0915 110.288 74.7275 110.176 74.2155 110.176C73.6075 110.176 73.1875 110.308 72.9555 110.572C72.7315 110.836 72.6195 111.252 72.6195 111.82ZM80.2288 115.12C79.6208 115.12 79.1648 114.96 78.8608 114.64C78.5648 114.312 78.4168 113.868 78.4168 113.308V110.332H77.5768V109.312H78.4168V108.004L79.7128 107.608V109.312H81.2248L81.1408 110.332H79.7128V113.236C79.7128 113.564 79.7888 113.796 79.9408 113.932C80.0928 114.06 80.3408 114.124 80.6848 114.124C80.9008 114.124 81.1288 114.084 81.3688 114.004V114.928C81.0568 115.056 80.6768 115.12 80.2288 115.12ZM84.5413 115.12C83.9333 115.12 83.4773 114.96 83.1733 114.64C82.8773 114.312 82.7293 113.868 82.7293 113.308V110.332H81.8893V109.312H82.7293V108.004L84.0253 107.608V109.312H85.5373L85.4533 110.332H84.0253V113.236C84.0253 113.564 84.1013 113.796 84.2533 113.932C84.4053 114.06 84.6533 114.124 84.9973 114.124C85.2133 114.124 85.4413 114.084 85.6813 114.004V114.928C85.3693 115.056 84.9893 115.12 84.5413 115.12ZM88.4578 115.12C88.0978 115.12 87.7618 115.056 87.4498 114.928C87.1458 114.8 86.9018 114.608 86.7178 114.352C86.5338 114.088 86.4418 113.764 86.4418 113.38C86.4418 112.836 86.6258 112.4 86.9938 112.072C87.3698 111.736 87.9458 111.568 88.7218 111.568H90.5458V111.316C90.5458 111.044 90.5018 110.828 90.4138 110.668C90.3338 110.508 90.1818 110.392 89.9578 110.32C89.7418 110.248 89.4218 110.212 88.9978 110.212C88.3258 110.212 87.6978 110.312 87.1138 110.512V109.54C87.3698 109.436 87.6818 109.352 88.0498 109.288C88.4178 109.224 88.8138 109.192 89.2378 109.192C90.0698 109.192 90.7018 109.36 91.1338 109.696C91.5738 110.032 91.7938 110.58 91.7938 111.34V115H90.6778L90.5938 114.424C90.3618 114.648 90.0738 114.82 89.7298 114.94C89.3938 115.06 88.9698 115.12 88.4578 115.12ZM88.8058 114.184C89.1978 114.184 89.5378 114.12 89.8258 113.992C90.1218 113.856 90.3618 113.676 90.5458 113.452V112.456H88.7458C88.3618 112.456 88.0818 112.532 87.9058 112.684C87.7378 112.828 87.6538 113.052 87.6538 113.356C87.6538 113.652 87.7538 113.864 87.9538 113.992C88.1538 114.12 88.4378 114.184 88.8058 114.184ZM96.3643 115.12C95.9483 115.12 95.5883 115.064 95.2843 114.952C94.9803 114.84 94.7003 114.668 94.4443 114.436L94.3723 115H93.2443V106.912H94.5523V109.684C95.0483 109.356 95.6443 109.192 96.3403 109.192C97.1483 109.192 97.7843 109.424 98.2483 109.888C98.7203 110.344 98.9563 111.084 98.9563 112.108C98.9563 113.14 98.7243 113.9 98.2603 114.388C97.7963 114.876 97.1643 115.12 96.3643 115.12ZM96.0163 114.136C96.6083 114.136 97.0243 113.968 97.2643 113.632C97.5123 113.296 97.6363 112.788 97.6363 112.108C97.6363 111.404 97.5043 110.908 97.2403 110.62C96.9763 110.332 96.5603 110.188 95.9923 110.188C95.4003 110.188 94.9203 110.352 94.5523 110.68V113.536C94.9283 113.936 95.4163 114.136 96.0163 114.136ZM101.645 115.12C101.181 115.12 100.829 115.008 100.589 114.784C100.349 114.552 100.229 114.172 100.229 113.644V106.912H101.537V113.524C101.537 113.748 101.577 113.9 101.657 113.98C101.737 114.06 101.857 114.1 102.017 114.1C102.209 114.1 102.393 114.076 102.569 114.028V114.976C102.417 115.032 102.269 115.068 102.125 115.084C101.989 115.108 101.829 115.12 101.645 115.12ZM106.472 115.12C105.48 115.12 104.712 114.876 104.168 114.388C103.624 113.9 103.352 113.152 103.352 112.144C103.352 111.232 103.584 110.512 104.048 109.984C104.512 109.456 105.216 109.192 106.16 109.192C107.024 109.192 107.672 109.42 108.104 109.876C108.544 110.324 108.764 110.904 108.764 111.616V112.672H104.6C104.664 113.224 104.864 113.604 105.2 113.812C105.536 114.02 106.048 114.124 106.736 114.124C107.024 114.124 107.32 114.096 107.624 114.04C107.928 113.984 108.192 113.912 108.416 113.824V114.784C108.16 114.896 107.864 114.98 107.528 115.036C107.2 115.092 106.848 115.12 106.472 115.12ZM104.6 111.82H107.612V111.424C107.612 111.032 107.504 110.728 107.288 110.512C107.072 110.288 106.708 110.176 106.196 110.176C105.588 110.176 105.168 110.308 104.936 110.572C104.712 110.836 104.6 111.252 104.6 111.82ZM114.579 115.12C114.219 115.12 113.883 115.056 113.571 114.928C113.267 114.8 113.023 114.608 112.839 114.352C112.655 114.088 112.563 113.764 112.563 113.38C112.563 112.836 112.747 112.4 113.115 112.072C113.491 111.736 114.067 111.568 114.843 111.568H116.667V111.316C116.667 111.044 116.623 110.828 116.535 110.668C116.455 110.508 116.303 110.392 116.079 110.32C115.863 110.248 115.543 110.212 115.119 110.212C114.447 110.212 113.819 110.312 113.235 110.512V109.54C113.491 109.436 113.803 109.352 114.171 109.288C114.539 109.224 114.935 109.192 115.359 109.192C116.191 109.192 116.823 109.36 117.255 109.696C117.695 110.032 117.915 110.58 117.915 111.34V115H116.799L116.715 114.424C116.483 114.648 116.195 114.82 115.851 114.94C115.515 115.06 115.091 115.12 114.579 115.12ZM114.927 114.184C115.319 114.184 115.659 114.12 115.947 113.992C116.243 113.856 116.483 113.676 116.667 113.452V112.456H114.867C114.483 112.456 114.203 112.532 114.027 112.684C113.859 112.828 113.775 113.052 113.775 113.356C113.775 113.652 113.875 113.864 114.075 113.992C114.275 114.12 114.559 114.184 114.927 114.184ZM121.717 115.12C121.205 115.12 120.753 115.032 120.361 114.856C119.969 114.68 119.665 114.388 119.449 113.98C119.233 113.572 119.125 113.024 119.125 112.336C119.125 111.656 119.241 111.084 119.473 110.62C119.705 110.148 120.025 109.792 120.433 109.552C120.849 109.312 121.317 109.192 121.837 109.192C122.181 109.192 122.485 109.232 122.749 109.312C123.021 109.392 123.281 109.516 123.529 109.684V106.912H124.837V115H123.721L123.637 114.436C123.381 114.668 123.101 114.84 122.797 114.952C122.493 115.064 122.133 115.12 121.717 115.12ZM122.065 114.136C122.649 114.136 123.137 113.936 123.529 113.536V110.692C123.153 110.356 122.681 110.188 122.113 110.188C121.561 110.188 121.145 110.372 120.865 110.74C120.585 111.108 120.445 111.644 120.445 112.348C120.445 113.028 120.573 113.496 120.829 113.752C121.093 114.008 121.505 114.136 122.065 114.136ZM128.049 115L125.805 109.312H127.161L128.757 113.728L130.353 109.312H131.697L129.465 115H128.049ZM135.206 115.12C134.214 115.12 133.446 114.876 132.902 114.388C132.358 113.9 132.086 113.152 132.086 112.144C132.086 111.232 132.318 110.512 132.782 109.984C133.246 109.456 133.95 109.192 134.894 109.192C135.758 109.192 136.406 109.42 136.838 109.876C137.278 110.324 137.498 110.904 137.498 111.616V112.672H133.334C133.398 113.224 133.598 113.604 133.934 113.812C134.27 114.02 134.782 114.124 135.47 114.124C135.758 114.124 136.054 114.096 136.358 114.04C136.662 113.984 136.926 113.912 137.15 113.824V114.784C136.894 114.896 136.598 114.98 136.262 115.036C135.934 115.092 135.582 115.12 135.206 115.12ZM133.334 111.82H136.346V111.424C136.346 111.032 136.238 110.728 136.022 110.512C135.806 110.288 135.442 110.176 134.93 110.176C134.322 110.176 133.902 110.308 133.67 110.572C133.446 110.836 133.334 111.252 133.334 111.82ZM138.772 115V109.312H139.972L140.032 109.912C140.288 109.712 140.592 109.544 140.944 109.408C141.304 109.264 141.7 109.192 142.132 109.192C142.868 109.192 143.404 109.364 143.74 109.708C144.076 110.052 144.244 110.588 144.244 111.316V115H142.948V111.376C142.948 110.936 142.856 110.628 142.672 110.452C142.496 110.276 142.16 110.188 141.664 110.188C141.368 110.188 141.076 110.248 140.788 110.368C140.508 110.488 140.272 110.644 140.08 110.836V115H138.772ZM147.881 115.12C147.273 115.12 146.817 114.96 146.513 114.64C146.217 114.312 146.069 113.868 146.069 113.308V110.332H145.229V109.312H146.069V108.004L147.365 107.608V109.312H148.877L148.793 110.332H147.365V113.236C147.365 113.564 147.441 113.796 147.593 113.932C147.745 114.06 147.993 114.124 148.337 114.124C148.553 114.124 148.781 114.084 149.021 114.004V114.928C148.709 115.056 148.329 115.12 147.881 115.12ZM152.074 115.12C151.394 115.12 150.87 114.932 150.502 114.556C150.142 114.18 149.962 113.628 149.962 112.9V109.312H151.27V112.9C151.27 113.324 151.374 113.636 151.582 113.836C151.79 114.036 152.11 114.136 152.542 114.136C152.862 114.136 153.158 114.076 153.43 113.956C153.702 113.836 153.938 113.676 154.138 113.476V109.312H155.434V115H154.246L154.186 114.412C153.93 114.612 153.626 114.78 153.274 114.916C152.922 115.052 152.522 115.12 152.074 115.12ZM156.959 115V109.312H158.159L158.231 109.972C158.503 109.796 158.827 109.636 159.203 109.492C159.579 109.348 159.951 109.248 160.319 109.192V110.188C160.095 110.228 159.851 110.288 159.587 110.368C159.331 110.44 159.087 110.524 158.855 110.62C158.623 110.708 158.427 110.8 158.267 110.896V115H156.959ZM163.917 115.12C162.925 115.12 162.157 114.876 161.613 114.388C161.069 113.9 160.797 113.152 160.797 112.144C160.797 111.232 161.029 110.512 161.493 109.984C161.957 109.456 162.661 109.192 163.605 109.192C164.469 109.192 165.117 109.42 165.549 109.876C165.989 110.324 166.209 110.904 166.209 111.616V112.672H162.045C162.109 113.224 162.309 113.604 162.645 113.812C162.981 114.02 163.493 114.124 164.181 114.124C164.469 114.124 164.765 114.096 165.069 114.04C165.373 113.984 165.637 113.912 165.861 113.824V114.784C165.605 114.896 165.309 114.98 164.973 115.036C164.645 115.092 164.293 115.12 163.917 115.12ZM162.045 111.82H165.057V111.424C165.057 111.032 164.949 110.728 164.733 110.512C164.517 110.288 164.153 110.176 163.641 110.176C163.033 110.176 162.613 110.308 162.381 110.572C162.157 110.836 162.045 111.252 162.045 111.82ZM167.363 113.068L167.291 109.204V107.272H168.599V109.204L168.527 113.068H167.363ZM167.243 115V114.016H168.635V115H167.243Z" fill="white"/>
<g clip-path="url(#clip0_434_110)">
<path d="M212.102 94.8776C212.031 94.7004 211.728 94.8901 211.673 94.7293C211.617 94.5691 211.899 94.3251 212.06 93.7675C212.089 93.6669 212.272 93.0333 212.136 92.8378C211.88 92.4672 210.705 93.9966 210.294 93.4961C210.204 93.3862 210.141 93.167 209.868 92.811C209.76 92.6693 209.694 92.6054 209.63 92.6292C209.54 92.6629 209.533 92.8439 209.436 93.1996C209.291 93.7331 209.206 93.7009 209.121 94.1265C209.058 94.4425 209.073 94.6261 208.999 94.6619C208.894 94.7126 208.798 94.3774 208.666 94.4074C208.531 94.4381 208.449 94.8283 208.423 95.1204C208.375 95.6687 208.509 96.0305 208.584 96.4109C208.665 96.8243 208.713 97.453 208.526 98.343L206.677 106.153C207.085 104.551 208.267 100.157 208.764 98.5248C208.907 98.0535 209.065 97.5755 209.39 97.3868C209.703 97.2052 210.133 97.3136 210.681 97.1157C210.745 97.0926 210.923 97.0249 210.945 96.8683C210.964 96.7389 210.859 96.6666 210.875 96.5453C210.897 96.3827 211.102 96.3807 211.354 96.1931C211.532 96.0608 211.643 95.9034 211.739 95.7681C211.767 95.7273 212.195 95.1134 212.102 94.8776Z" fill="#F2F2F2"/>
<path d="M204.827 98.9891C204.749 98.9896 204.723 99.2674 204.655 99.262C204.586 99.2566 204.587 98.979 204.451 98.6997C204.427 98.6493 204.272 98.3319 204.169 98.3751C203.974 98.457 204.136 99.7623 203.853 99.9203C203.791 99.955 203.701 99.9381 203.506 100.036C203.428 100.075 203.388 100.105 203.378 100.159C203.363 100.235 203.42 100.292 203.509 100.466C203.641 100.727 203.606 100.78 203.721 100.965C203.806 101.103 203.871 101.145 203.861 101.21C203.848 101.301 203.71 101.275 203.682 101.381C203.653 101.49 203.757 101.662 203.845 101.766C204.011 101.959 204.168 101.965 204.314 102.02C204.473 102.08 204.692 102.226 204.93 102.62L206.953 106.234C206.546 105.471 205.449 103.334 205.058 102.497C204.945 102.256 204.834 102.002 204.866 101.708C204.897 101.425 205.056 101.14 205.15 100.68C205.161 100.626 205.19 100.476 205.145 100.414C205.108 100.364 205.054 100.42 205.019 100.373C204.972 100.31 205.031 100.158 205.042 99.9184C205.05 99.7492 205.031 99.6222 205.014 99.513C205.009 99.4801 204.931 98.9885 204.827 98.9891Z" fill="#F2F2F2"/>
<path d="M206.387 99.5143L206.34 98.8836L206.362 98.8358C206.461 98.6147 206.512 98.3988 206.513 98.1939C206.513 98.1613 206.512 98.1287 206.511 98.0955C206.507 97.964 206.502 97.8005 206.559 97.6098C206.59 97.5036 206.68 97.2575 206.815 97.288C206.851 97.2956 206.878 97.3205 206.899 97.3498C206.902 97.3425 206.905 97.3352 206.909 97.3272C206.951 97.2313 206.984 97.1902 207.016 97.1506C207.04 97.1202 207.066 97.0888 207.106 97.0145C207.123 96.9819 207.137 96.9533 207.148 96.9292C207.183 96.8565 207.229 96.7697 207.309 96.7712C207.394 96.7773 207.439 96.8836 207.469 96.9539C207.522 97.0794 207.546 97.1698 207.562 97.2298C207.568 97.2517 207.575 97.2764 207.578 97.284C207.606 97.3449 207.83 97.288 207.915 97.2672C208.105 97.2197 208.269 97.1786 208.337 97.3583C208.385 97.4868 208.349 97.6567 208.227 97.8769C208.188 97.9454 208.148 97.9975 208.111 98.0383C208.141 98.0651 208.168 98.1062 208.179 98.1707C208.205 98.3236 208.117 98.4768 207.919 98.6266C207.869 98.6641 207.803 98.714 207.71 98.738C207.666 98.7493 207.627 98.7521 207.593 98.7536C207.593 98.7828 207.588 98.8145 207.576 98.8471C207.541 98.943 207.469 98.9887 207.359 98.9777C207.239 98.9683 207.14 98.9338 207.053 98.9037C206.977 98.8775 206.911 98.8553 206.859 98.8605C206.764 98.872 206.69 98.9868 206.603 99.1357L206.387 99.5143Z" fill="#F2F2F2"/>
<path d="M206.606 95.7594L206.211 95.9877L206.175 95.9686C206.007 95.8802 205.855 95.8613 205.722 95.9124C205.701 95.9205 205.68 95.9303 205.659 95.9402C205.575 95.9794 205.471 96.0283 205.334 95.9941C205.257 95.9748 205.076 95.9074 205.061 95.7043C205.057 95.6498 205.066 95.6037 205.079 95.5661C205.074 95.5636 205.068 95.5609 205.063 95.558C204.99 95.5215 204.955 95.4838 204.921 95.4474C204.896 95.4195 204.869 95.3906 204.811 95.3518C204.785 95.3347 204.763 95.3222 204.745 95.3117C204.689 95.2796 204.622 95.2357 204.602 95.1189C204.584 94.9931 204.642 94.901 204.679 94.84C204.747 94.7312 204.799 94.6733 204.834 94.635C204.847 94.621 204.861 94.6052 204.865 94.5984C204.897 94.5429 204.803 94.2317 204.769 94.1143C204.69 93.8508 204.622 93.6228 204.72 93.479C204.791 93.376 204.91 93.3852 205.083 93.5075C205.137 93.5457 205.181 93.5915 205.216 93.6336C205.226 93.5834 205.246 93.534 205.285 93.5019C205.377 93.426 205.498 93.5143 205.645 93.7639C205.681 93.8258 205.73 93.9093 205.77 94.038C205.788 94.0986 205.8 94.1551 205.809 94.2036C205.828 94.1972 205.85 94.1958 205.874 94.2047C205.945 94.2309 205.992 94.3245 206.013 94.4857C206.038 94.6625 206.04 94.8148 206.043 94.9491C206.046 95.0664 206.048 95.1673 206.064 95.2408C206.096 95.3766 206.189 95.4544 206.307 95.5421L206.606 95.7594Z" fill="#F2F2F2"/>
<path d="M206.387 93.9015L206.34 93.2708L206.362 93.223C206.461 93.0019 206.512 92.786 206.513 92.5811C206.513 92.5485 206.512 92.5159 206.511 92.4827C206.507 92.3512 206.502 92.1877 206.559 91.997C206.59 91.8908 206.68 91.6447 206.815 91.6752C206.851 91.6828 206.878 91.7077 206.899 91.737C206.902 91.7297 206.905 91.7224 206.909 91.7144C206.951 91.6185 206.984 91.5774 207.016 91.5378C207.04 91.5074 207.066 91.476 207.106 91.4017C207.123 91.3691 207.137 91.3405 207.148 91.3165C207.183 91.2437 207.229 91.1569 207.309 91.1584C207.394 91.1645 207.439 91.2708 207.469 91.3411C207.522 91.4666 207.546 91.557 207.562 91.617C207.568 91.6389 207.575 91.6636 207.578 91.6712C207.606 91.7321 207.83 91.6752 207.915 91.6545C208.105 91.607 208.269 91.5658 208.337 91.7455C208.385 91.874 208.349 92.0439 208.227 92.2641C208.188 92.3326 208.148 92.3847 208.111 92.4255C208.141 92.4523 208.168 92.4934 208.179 92.558C208.205 92.7108 208.117 92.864 207.919 93.0138C207.869 93.0513 207.803 93.1012 207.71 93.1253C207.666 93.1365 207.627 93.1393 207.593 93.1408C207.593 93.17 207.588 93.2017 207.576 93.2343C207.541 93.3302 207.469 93.3759 207.359 93.3649C207.239 93.3555 207.14 93.3211 207.053 93.2909C206.977 93.2647 206.911 93.2425 206.859 93.2477C206.764 93.2592 206.69 93.374 206.603 93.5229L206.387 93.9015Z" fill="#F2F2F2"/>
<path d="M206.818 106.143L206.73 106.06L206.627 106.078C206.625 106.063 206.62 106.031 206.611 105.979C206.565 105.697 206.425 104.839 206.308 103.488C206.226 102.544 206.18 101.574 206.17 100.604C206.161 99.633 206.192 98.8976 206.216 98.3066C206.235 97.8608 206.257 97.4363 206.279 97.0227C206.338 95.918 206.394 94.8744 206.353 93.7191C206.343 93.4612 206.324 92.9243 206.115 92.353C205.994 92.0217 205.826 91.7276 205.618 91.4791L205.748 91.2349C205.978 91.5095 206.163 91.8354 206.297 92.2032C206.529 92.8366 206.55 93.4216 206.56 93.7026C206.602 94.8784 206.546 95.932 206.487 97.0474C206.465 97.4594 206.442 97.8821 206.424 98.3261C206.399 98.9116 206.369 99.6406 206.378 100.6C206.388 101.558 206.433 102.516 206.514 103.447C206.63 104.782 206.768 105.627 206.813 105.905C206.837 106.053 206.842 106.084 206.818 106.143Z" fill="#F2F2F2"/>
<path d="M205.237 91.9745C205.228 91.9745 205.219 91.9742 205.211 91.9733C205.034 91.959 204.87 91.8 204.723 91.501C204.654 91.3603 204.619 91.1999 204.549 90.8798C204.538 90.8305 204.486 90.5802 204.453 90.2358C204.432 90.0107 204.435 89.9166 204.465 89.8335C204.498 89.7409 204.551 89.6764 204.611 89.6328C204.609 89.603 204.611 89.5722 204.62 89.5409C204.655 89.4108 204.749 89.4279 204.8 89.4361C204.826 89.441 204.858 89.4474 204.893 89.4446C204.948 89.4407 204.977 89.4163 205.021 89.3798C205.064 89.3448 205.117 89.3012 205.195 89.2772C205.35 89.2287 205.48 89.2945 205.523 89.3161C205.748 89.4285 205.858 89.6907 205.987 89.9943C206.012 90.0552 206.1 90.2769 206.158 90.5808C206.2 90.8 206.194 90.8975 206.182 90.9699C206.156 91.1188 206.096 91.2041 205.942 91.3923C205.782 91.5893 205.701 91.688 205.632 91.748C205.472 91.8871 205.371 91.9745 205.237 91.9745Z" fill="#F2F2F2"/>
<path d="M271.349 95.0772C271.279 94.9 270.975 95.0897 270.92 94.9289C270.864 94.7687 271.146 94.5246 271.307 93.9671C271.336 93.8665 271.519 93.2329 271.383 93.0374C271.127 92.6667 269.952 94.1961 269.541 93.6957C269.451 93.5858 269.388 93.3666 269.115 93.0106C269.007 92.8689 268.941 92.805 268.877 92.8288C268.787 92.8625 268.78 93.0434 268.683 93.3992C268.538 93.9326 268.453 93.9004 268.368 94.3261C268.306 94.642 268.32 94.8257 268.246 94.8615C268.142 94.9122 268.045 94.577 267.913 94.607C267.778 94.6377 267.696 95.0279 267.671 95.32C267.622 95.8683 267.757 96.2301 267.831 96.6105C267.912 97.0239 267.96 97.6526 267.773 98.5426L265.924 106.353C266.332 104.75 267.514 100.357 268.011 98.7244C268.154 98.2531 268.313 97.7751 268.638 97.5864C268.951 97.4048 269.38 97.5132 269.928 97.3153C269.992 97.2922 270.17 97.2245 270.192 97.0679C270.211 96.9384 270.106 96.8662 270.122 96.7449C270.144 96.5823 270.349 96.5803 270.602 96.3927C270.78 96.2604 270.891 96.103 270.986 95.9677C271.015 95.9269 271.442 95.313 271.349 95.0772Z" fill="#F2F2F2"/>
<path d="M264.074 99.1887C263.996 99.1892 263.97 99.467 263.902 99.4616C263.833 99.4562 263.835 99.1785 263.699 98.8993C263.674 98.8489 263.519 98.5315 263.416 98.5747C263.221 98.6566 263.383 99.9619 263.1 100.12C263.038 100.155 262.948 100.138 262.753 100.236C262.675 100.275 262.635 100.305 262.625 100.358C262.61 100.434 262.667 100.492 262.756 100.666C262.889 100.926 262.853 100.98 262.968 101.165C263.054 101.302 263.118 101.345 263.108 101.409C263.095 101.501 262.957 101.475 262.929 101.581C262.9 101.689 263.004 101.862 263.092 101.965C263.258 102.159 263.415 102.164 263.561 102.219C263.72 102.279 263.939 102.425 264.177 102.82L266.2 106.434C265.793 105.671 264.696 103.534 264.305 102.697C264.192 102.456 264.081 102.201 264.113 101.908C264.144 101.625 264.304 101.34 264.397 100.88C264.408 100.826 264.437 100.676 264.392 100.614C264.355 100.563 264.301 100.619 264.266 100.572C264.219 100.51 264.278 100.358 264.289 100.118C264.297 99.9488 264.278 99.8218 264.261 99.7126C264.256 99.6797 264.178 99.1881 264.074 99.1887Z" fill="#F2F2F2"/>
<path d="M265.634 99.7138L265.587 99.0832L265.609 99.0354C265.708 98.8143 265.759 98.5984 265.76 98.3935C265.76 98.3609 265.759 98.3283 265.758 98.2951C265.754 98.1636 265.749 98 265.806 97.8094C265.838 97.7031 265.927 97.4571 266.062 97.4875C266.098 97.4952 266.125 97.5201 266.146 97.5494C266.149 97.5421 266.152 97.5347 266.156 97.5268C266.198 97.4309 266.231 97.3898 266.263 97.3502C266.288 97.3198 266.313 97.2884 266.353 97.2141C266.37 97.1815 266.384 97.1529 266.395 97.1288C266.43 97.0561 266.476 96.9693 266.556 96.9708C266.642 96.9769 266.686 97.0832 266.716 97.1535C266.769 97.279 266.793 97.3694 266.809 97.4294C266.815 97.4513 266.822 97.476 266.825 97.4836C266.853 97.5445 267.077 97.4875 267.162 97.4668C267.352 97.4193 267.516 97.3782 267.584 97.5579C267.633 97.6864 267.597 97.8563 267.474 98.0765C267.435 98.145 267.395 98.1971 267.359 98.2379C267.388 98.2647 267.415 98.3058 267.426 98.3703C267.452 98.5232 267.364 98.6764 267.166 98.8262C267.116 98.8636 267.05 98.9136 266.957 98.9376C266.913 98.9489 266.874 98.9516 266.84 98.9532C266.84 98.9824 266.835 99.0141 266.823 99.0466C266.788 99.1426 266.716 99.1883 266.607 99.1773C266.486 99.1678 266.387 99.1334 266.3 99.1033C266.224 99.0771 266.158 99.0549 266.106 99.06C266.011 99.0716 265.937 99.1864 265.85 99.3353L265.634 99.7138Z" fill="#F2F2F2"/>
<path d="M265.853 95.959L265.458 96.1873L265.422 96.1682C265.254 96.0798 265.102 96.0609 264.969 96.112C264.948 96.1201 264.927 96.1298 264.906 96.1397C264.822 96.179 264.718 96.2278 264.581 96.1937C264.504 96.1744 264.323 96.1069 264.308 95.9039C264.304 95.8494 264.313 95.8033 264.327 95.7657C264.321 95.7632 264.316 95.7604 264.31 95.7576C264.237 95.7211 264.202 95.6834 264.169 95.647C264.143 95.6191 264.116 95.5902 264.058 95.5513C264.032 95.5343 264.011 95.5218 263.992 95.5113C263.936 95.4792 263.869 95.4352 263.849 95.3185C263.832 95.1927 263.889 95.1006 263.927 95.0396C263.994 94.9308 264.046 94.8729 264.081 94.8346C264.094 94.8206 264.108 94.8048 264.112 94.798C264.144 94.7425 264.051 94.4313 264.016 94.3139C263.937 94.0504 263.869 93.8224 263.967 93.6786C264.038 93.5756 264.157 93.5847 264.33 93.7071C264.384 93.7452 264.428 93.7911 264.463 93.8332C264.473 93.7829 264.493 93.7336 264.532 93.7015C264.624 93.6256 264.745 93.7139 264.892 93.9635C264.929 94.0254 264.978 94.1089 265.017 94.2376C265.035 94.2982 265.047 94.3546 265.056 94.4032C265.075 94.3968 265.097 94.3954 265.121 94.4043C265.192 94.4305 265.24 94.5241 265.26 94.6853C265.285 94.8621 265.288 95.0144 265.29 95.1487C265.293 95.266 265.295 95.3669 265.311 95.4404C265.343 95.5762 265.436 95.654 265.554 95.7417L265.853 95.959Z" fill="#F2F2F2"/>
<path d="M265.634 94.101L265.587 93.4704L265.609 93.4226C265.708 93.2015 265.759 92.9856 265.76 92.7807C265.76 92.7481 265.759 92.7155 265.758 92.6823C265.754 92.5508 265.749 92.3872 265.806 92.1966C265.838 92.0903 265.927 91.8443 266.062 91.8748C266.098 91.8824 266.125 91.9073 266.146 91.9366C266.149 91.9293 266.152 91.922 266.156 91.914C266.198 91.8181 266.231 91.777 266.263 91.7374C266.288 91.707 266.313 91.6756 266.353 91.6013C266.37 91.5687 266.384 91.5401 266.395 91.516C266.43 91.4433 266.476 91.3565 266.556 91.358C266.642 91.3641 266.686 91.4704 266.716 91.5407C266.769 91.6662 266.793 91.7566 266.809 91.8166C266.815 91.8385 266.822 91.8632 266.825 91.8708C266.853 91.9317 267.077 91.8747 267.162 91.854C267.352 91.8065 267.516 91.7654 267.584 91.9451C267.633 92.0736 267.597 92.2435 267.474 92.4637C267.435 92.5322 267.395 92.5843 267.359 92.6251C267.388 92.6519 267.415 92.693 267.426 92.7575C267.452 92.9104 267.364 93.0636 267.166 93.2134C267.116 93.2508 267.05 93.3008 266.957 93.3248C266.913 93.3361 266.874 93.3388 266.84 93.3404C266.84 93.3696 266.835 93.4013 266.823 93.4339C266.788 93.5298 266.716 93.5755 266.607 93.5645C266.486 93.5551 266.387 93.5206 266.3 93.4905C266.224 93.4643 266.158 93.4421 266.106 93.4473C266.011 93.4588 265.937 93.5736 265.85 93.7225L265.634 94.101Z" fill="#F2F2F2"/>
<path d="M266.065 106.342L265.977 106.26L265.874 106.277C265.872 106.263 265.867 106.23 265.858 106.179C265.812 105.897 265.672 105.039 265.555 103.687C265.473 102.744 265.427 101.774 265.418 100.804C265.408 99.8326 265.439 99.0972 265.463 98.5062C265.482 98.0603 265.504 97.6359 265.527 97.2223C265.585 96.1176 265.641 95.074 265.6 93.9187C265.591 93.6607 265.571 93.1239 265.362 92.5526C265.241 92.2213 265.074 91.9271 264.865 91.6787L264.995 91.4344C265.225 91.7091 265.41 92.0349 265.545 92.4028C265.777 93.0362 265.797 93.6212 265.807 93.9022C265.85 95.0779 265.793 96.1316 265.734 97.247C265.712 97.659 265.689 98.0817 265.671 98.5256C265.647 99.1112 265.616 99.8402 265.626 100.799C265.635 101.757 265.681 102.715 265.761 103.647C265.877 104.981 266.015 105.827 266.06 106.104C266.085 106.253 266.09 106.284 266.065 106.342Z" fill="#F2F2F2"/>
<path d="M264.484 92.1741C264.475 92.1741 264.467 92.1738 264.458 92.1729C264.281 92.1586 264.117 91.9996 263.97 91.7006C263.902 91.5599 263.866 91.3994 263.796 91.0794C263.786 91.0301 263.733 90.7798 263.701 90.4354C263.68 90.2103 263.682 90.1162 263.712 90.0331C263.745 89.9405 263.798 89.876 263.859 89.8324C263.856 89.8026 263.858 89.7718 263.867 89.7405C263.902 89.6104 263.996 89.6275 264.047 89.6357C264.073 89.6406 264.105 89.647 264.14 89.6442C264.195 89.6403 264.224 89.6159 264.269 89.5794C264.311 89.5443 264.364 89.5008 264.443 89.4767C264.597 89.4283 264.727 89.4941 264.77 89.5157C264.995 89.6281 265.106 89.8903 265.234 90.1939C265.26 90.2548 265.347 90.4765 265.405 90.7804C265.447 90.9996 265.441 91.0971 265.429 91.1695C265.403 91.3184 265.343 91.4037 265.189 91.5919C265.029 91.7889 264.949 91.8876 264.88 91.9476C264.719 92.0867 264.618 92.1741 264.484 92.1741Z" fill="#F2F2F2"/>
<path d="M237.349 58.9418C242.349 58.9418 246.402 52.8651 246.402 45.3691C246.402 37.8731 242.349 31.7964 237.349 31.7964C232.349 31.7964 228.295 37.8731 228.295 45.3691C228.295 52.8651 232.349 58.9418 237.349 58.9418Z" fill="#FF6884"/>
<path d="M272.328 106.06C272.328 106.153 272.278 106.228 272.216 106.228H194.702V105.892H272.216C272.278 105.892 272.328 105.967 272.328 106.06Z" fill="#E6E6E6"/>
<path d="M260.648 106.047C260.648 113.653 261.181 119.221 255.656 119.82C249.722 120.463 250.663 113.653 250.663 106.047C250.663 98.441 249.864 90.8777 255.656 92.2749C258.378 92.9316 260.648 98.441 260.648 106.047Z" fill="#3F3D56"/>
<path d="M252.261 115.628C252.702 115.628 253.059 111.338 253.059 106.047C253.059 100.756 252.702 96.4664 252.261 96.4664C251.819 96.4664 251.462 100.756 251.462 106.047C251.462 111.338 251.819 115.628 252.261 115.628Z" fill="#E6E6E6"/>
<path d="M220.658 93.7985C220.658 100.511 221.128 105.424 216.252 105.952C211.016 106.52 211.846 100.511 211.846 93.7985C211.846 87.0861 211.141 80.4117 216.252 81.6447C218.655 82.2243 220.658 87.0861 220.658 93.7985Z" fill="#3F3D56"/>
<path d="M213.256 102.253C213.646 102.253 213.961 98.468 213.961 93.7985C213.961 89.129 213.646 85.3437 213.256 85.3437C212.867 85.3437 212.551 89.129 212.551 93.7985C212.551 98.468 212.867 102.253 213.256 102.253Z" fill="#E6E6E6"/>
<path d="M228.229 105.947C228.229 113.554 228.761 119.121 223.236 119.72C217.303 120.363 218.243 113.554 218.243 105.947C218.243 98.3412 217.445 90.7779 223.236 92.1751C225.958 92.8319 228.229 98.3412 228.229 105.947Z" fill="#3F3D56"/>
<path d="M219.841 115.528C220.282 115.528 220.64 111.239 220.64 105.947C220.64 100.656 220.282 96.3667 219.841 96.3667C219.4 96.3667 219.042 100.656 219.042 105.947C219.042 111.239 219.4 115.528 219.841 115.528Z" fill="#E6E6E6"/>
<path d="M212.452 77.7042V82.4254L211.586 84.5903L211.853 92.1751L212.068 92.3747L211.919 84.6901C213.436 83.8435 213.932 85.403 213.783 88.4825L213.517 93.6721L217.777 97.6641L218.31 89.4805L220.307 88.0833L222.504 101.955H259.31C260.827 101.955 262.04 100.063 261.978 97.79L261.514 80.5984L260.26 78.7195L259.099 58.587C258.81 53.5663 255.97 49.745 252.61 49.8536L229.585 50.5975C228.336 50.6378 227.102 51.0148 225.942 51.7105L220.374 55.0497L216.779 60.4381L216.246 73.4128L214.887 73.2356C213.91 73.1082 213.018 74.0768 212.794 75.5092L212.452 77.7042Z" fill="#E6E6E6"/>
<path d="M224.368 96.3667C225.103 96.3667 225.699 95.473 225.699 94.3707C225.699 93.2683 225.103 92.3747 224.368 92.3747C223.632 92.3747 223.036 93.2683 223.036 94.3707C223.036 95.473 223.632 96.3667 224.368 96.3667Z" fill="#3F3D56"/>
<path d="M227.43 96.3667C228.165 96.3667 228.761 95.473 228.761 94.3707C228.761 93.2683 228.165 92.3747 227.43 92.3747C226.695 92.3747 226.099 93.2683 226.099 94.3707C226.099 95.473 226.695 96.3667 227.43 96.3667Z" fill="#3F3D56"/>
<path d="M257.253 96.3667C257.989 96.3667 258.585 95.473 258.585 94.3707C258.585 93.2683 257.989 92.3747 257.253 92.3747C256.518 92.3747 255.922 93.2683 255.922 94.3707C255.922 95.473 256.518 96.3667 257.253 96.3667Z" fill="#3F3D56"/>
<path d="M260.315 96.3667C261.051 96.3667 261.647 95.473 261.647 94.3707C261.647 93.2683 261.051 92.3747 260.315 92.3747C259.58 92.3747 258.984 93.2683 258.984 94.3707C258.984 95.473 259.58 96.3667 260.315 96.3667Z" fill="#3F3D56"/>
<path d="M258.238 75.6226H226.937C226.698 75.6226 226.475 75.4797 226.31 75.2201C226.145 74.9605 226.06 74.6201 226.072 74.2619L226.529 59.766C226.551 59.0806 226.926 58.5368 227.384 58.528L256.939 57.9577C257.375 57.9515 257.753 58.4366 257.809 59.0918L259.098 74.158C259.129 74.5281 259.053 74.9012 258.889 75.1815C258.724 75.4618 258.487 75.6226 258.238 75.6226Z" fill="white"/>
<path d="M222.567 74.9098H220.536C220.295 74.9098 220.063 74.7577 219.9 74.4924C219.736 74.2271 219.653 73.8685 219.672 73.5083L220.257 62.3865C220.289 61.7758 220.594 61.2887 220.998 61.2021L223.097 60.7527C223.36 60.6967 223.621 60.8209 223.814 61.0942C224.008 61.3676 224.106 61.7518 224.083 62.1485L223.431 73.7198C223.393 74.3981 223.021 74.9098 222.567 74.9098Z" fill="white"/>
<path d="M217.897 74.6271C217.876 74.6271 217.855 74.626 217.834 74.6238L217.595 74.5983C217.36 74.5729 217.146 74.41 216.994 74.1392C216.842 73.8683 216.771 73.5252 216.794 73.1728L217.451 63.3379C217.489 62.7557 217.785 62.2818 218.17 62.1855C218.433 62.1194 218.697 62.2356 218.894 62.503C219.091 62.7701 219.195 63.1515 219.178 63.5494L218.76 73.41C218.746 73.7584 218.641 74.0767 218.466 74.3063C218.306 74.515 218.106 74.6271 217.897 74.6271Z" fill="white"/>
<path d="M214.595 94.6928L214.249 83.3927C214.249 83.3927 213.45 81.7959 212.918 82.1951C212.385 82.5943 211.594 84.8143 211.594 84.8143C211.594 84.8143 213.138 84.6626 213.094 87.1214C213.051 89.5803 213.359 93.5581 213.359 93.5581L214.595 94.6928Z" fill="#CCCCCC"/>
<path d="M217.81 97.6452L217.977 89.2149L219.671 86.2162C219.671 86.2162 221.934 85.483 221.886 89.328C221.838 93.173 222.57 102.055 222.57 102.055L220.915 100.497C220.915 100.497 220.507 90.9775 219.308 89.9795C218.11 88.9815 218.51 89.7799 218.51 89.7799L217.81 97.6452Z" fill="#CCCCCC"/>
<path d="M216.046 76.0339L214.734 74.9098H214.877C215.082 74.9098 215.248 74.661 215.248 74.3542V69.4774C215.248 69.1705 215.082 68.9218 214.877 68.9218H213.488C213.283 68.9218 213.117 69.1705 213.117 69.4774V74.3542C213.117 74.661 213.283 74.9098 213.488 74.9098H214.197L215.914 76.3805L216.046 76.0339Z" fill="#3F3D56"/>
<path d="M217.819 83.3412L216.795 82.8999C216.548 82.7933 216.29 83.0074 216.219 83.3782C216.147 83.749 216.29 84.1361 216.538 84.2427L217.561 84.684C217.809 84.7906 218.067 84.5765 218.138 84.2057C218.209 83.8349 218.066 83.4478 217.819 83.3412Z" fill="#3F3D56"/>
<path d="M259.521 69.1713L255.144 68.888C254.887 68.8714 254.669 69.1704 254.658 69.5559C254.647 69.9413 254.846 70.2673 255.103 70.2839L259.48 70.5672C259.737 70.5838 259.955 70.2848 259.966 69.8994C259.977 69.5139 259.778 69.1879 259.521 69.1713Z" fill="#3F3D56"/>
<path d="M263.648 82.3448L259.271 82.0616C259.014 82.0449 258.796 82.3439 258.785 82.7294C258.774 83.1148 258.974 83.4408 259.231 83.4575L263.608 83.7407C263.865 83.7573 264.082 83.4583 264.093 83.0729C264.104 82.6874 263.905 82.3614 263.648 82.3448Z" fill="#3F3D56"/>
<path d="M245.803 97.5643C251.392 97.5643 255.922 90.7726 255.922 82.3947C255.922 74.0168 251.392 67.2252 245.803 67.2252C240.215 67.2252 235.685 74.0168 235.685 82.3947C235.685 90.7726 240.215 97.5643 245.803 97.5643Z" fill="#3F3D56"/>
<path d="M245.803 91.3767C249.112 91.3767 251.795 87.3553 251.795 82.3947C251.795 77.4341 249.112 73.4128 245.803 73.4128C242.494 73.4128 239.812 77.4341 239.812 82.3947C239.812 87.3553 242.494 91.3767 245.803 91.3767Z" fill="#E6E6E6"/>
<path d="M259.209 52.2686C259.26 53.1541 259.606 53.8325 259.982 53.7838C260.358 53.7351 260.621 52.9779 260.57 52.0921C260.553 51.7378 260.48 51.3949 260.356 51.0919L260.109 47.3442L258.938 47.5557L259.306 51.2279C259.219 51.5582 259.186 51.9151 259.209 52.2686Z" fill="#FFB6B6"/>
<path d="M255.821 30.5737C255.821 30.5737 257.113 30.0282 257.609 30.9517C258.106 31.8752 259.958 40.9444 259.958 40.9444L260.533 50.705L258.699 49.8731L257.986 42.1755L256.787 38.1835L255.821 30.5737Z" fill="#191970"/>
<path d="M255.399 24.7021H251.463V30.2986H255.399V24.7021Z" fill="#2F2E41"/>
<path d="M253.389 27.5534C254.45 27.5534 255.309 26.2651 255.309 24.6758C255.309 23.0866 254.45 21.7983 253.389 21.7983C252.329 21.7983 251.47 23.0866 251.47 24.6758C251.47 26.2651 252.329 27.5534 253.389 27.5534Z" fill="#FFB6B6"/>
<path d="M252.481 20.0214C251.254 20.3061 251.313 20.9895 250.92 21.3442C250.228 21.9693 249.955 23.7741 250.32 24.9651C250.418 25.2833 250.624 25.7174 250.524 26.1861C250.447 26.5459 250.226 26.7582 250.184 26.7967C249.845 27.1113 250.067 26.737 249.913 27.0002C249.743 27.2907 250.006 27.701 249.845 28.2212C249.702 28.6824 249.408 28.6435 249.37 28.9335C249.304 29.4329 250.059 30.437 250.863 30.358C251.579 30.2877 252.11 29.3807 252.289 28.5265C252.408 27.9543 252.459 26.97 252.153 26.4914C252.11 26.4243 251.992 26.2617 251.881 25.9826C251.793 25.7618 251.678 25.471 251.746 25.2703C251.818 25.0565 252.022 25.1691 252.153 24.9651C252.33 24.6884 252.12 24.221 252.153 23.744C252.209 22.9363 252.973 21.9648 253.782 22.116C254.7 22.2874 255.037 23.784 255.071 23.9475C255.144 24.2865 255.142 24.6145 255.139 25.2703C255.135 26.2116 255.132 26.8015 254.936 27.4072C254.652 28.2783 254.292 28.1842 254.189 28.8317C254.029 29.8414 254.782 30.8554 254.868 30.9686C255.506 31.8073 256.47 32.0595 256.632 31.6808C256.779 31.3396 256.136 30.8087 256.157 29.7475C256.176 28.8279 256.672 28.5475 256.565 27.9159C256.446 27.2207 255.814 27.3793 255.546 26.5931C255.297 25.8593 255.757 25.4522 255.682 23.9475C255.666 23.6292 255.6 22.7157 255.207 21.8107C255.034 21.412 254.858 21.0065 254.528 20.7932C254.159 20.5544 253.13 19.8709 252.481 20.0214Z" fill="#2F2E41"/>
<path d="M251.666 22.5653C251.716 23.1954 252.347 23.5042 252.617 23.5828C252.731 23.6161 253.116 23.7287 253.499 23.4811C253.641 23.3895 253.692 23.3068 253.838 23.2776C254.036 23.238 254.136 23.351 254.449 23.4811C254.797 23.6257 254.971 23.6981 255.06 23.5828C255.205 23.3944 255.094 22.7781 254.924 22.3618C254.611 21.592 254.038 21.3537 253.77 21.2425C253.465 21.1155 252.845 20.8577 252.277 21.3442C252.201 21.4093 251.616 21.9251 251.666 22.5653Z" fill="#2F2E41"/>
<path d="M261.01 79.1808L261.989 79.2155L262.535 72.6172L261.09 72.5659L261.01 79.1808Z" fill="#FFB6B6"/>
<path d="M264.371 82.2449C264.371 82.493 264.253 82.6941 264.108 82.6941H262.164C262.164 82.6941 261.972 81.541 261.192 81.0447L261.138 82.6941H260.135L260.257 80.0419C260.257 80.0419 259.988 78.6229 260.546 77.8976C261.103 77.1722 260.652 77.2732 260.652 77.2732L260.871 75.6317L262.387 75.8989L262.398 78.4757L263.133 81.0335L264.212 81.8326C264.308 81.9037 264.371 82.0657 264.371 82.2449Z" fill="#2F2E41"/>
<path d="M256.555 66.2573L257.513 65.9481L257.017 59.3411L255.603 59.7972L256.555 66.2573Z" fill="#FFB6B6"/>
<path d="M260.301 68.0604C260.339 68.3017 260.257 68.5384 260.116 68.5891L258.225 69.2696C258.225 69.2696 257.859 68.2153 257.023 68.0058L257.228 69.6285L256.252 69.9796L255.958 67.358C255.958 67.358 255.476 66.0722 255.905 65.1719C256.334 64.2715 255.91 64.5277 255.91 64.5277L255.868 62.8548L257.384 62.5841L257.796 65.0859L258.909 67.3155L260.083 67.7149C260.187 67.7504 260.273 67.8862 260.301 68.0604Z" fill="#2F2E41"/>
<path d="M254.724 27.9042L252.327 28.1038L251.661 30.0998L249.132 32.0958L249.531 41.9382L248.618 46.8887L248.732 48.2633L257.653 47.8641L257.12 33.0938L257.253 30.6986L255.522 29.9002L254.724 27.9042Z" fill="#191970"/>
<path d="M248.799 46.3671C248.799 46.3671 246.802 51.6573 248.799 52.4054C249.687 52.7382 250.628 52.9624 251.4 53.1089C252.323 53.2842 253.173 52.3341 253.326 50.9579L255.456 61.9359L257.586 61.1375L257.986 55.423L260.574 59.3033L260.249 74.9098L262.645 74.7102L265.175 57.7443C265.175 57.7443 265.308 56.5467 263.311 54.9499C261.314 53.3531 257.719 48.1635 257.719 48.1635L251.595 45.3691L248.799 46.3671Z" fill="#2F2E41"/>
<path d="M252.993 49.8601L249.531 46.4669L253.792 39.6805C253.792 39.6805 256.188 38.2834 256.854 43.6725C257.52 49.0617 257.919 53.8521 257.919 53.8521L252.993 49.8601Z" fill="#2F2E41"/>
<path d="M245.851 39.7301L246.002 38.1836C246.113 37.0565 245.614 36.0729 244.938 35.8308V35.1896C244.938 34.6384 244.64 34.1916 244.272 34.1916C243.905 34.1916 243.606 34.6384 243.606 35.1896V36.0448L241.077 36.8493V35.7884C241.077 35.2372 240.779 34.7904 240.411 34.7904C240.043 34.7904 239.745 35.2372 239.745 35.7884V36.7967L239.494 36.6983C238.743 36.4046 238.15 37.6964 238.617 38.6257C238.623 38.6377 238.629 38.6497 238.635 38.6617C239.259 39.8636 239.437 40.932 239.437 40.932L238.991 44.5377L239.499 52.0342C239.564 53.0003 240.119 53.7243 240.766 53.6884L245.691 53.4149C246.338 53.379 246.856 52.5971 246.874 51.6271C246.936 48.1719 246.944 40.6519 245.851 39.7301Z" fill="#3F3D56"/>
<path d="M241.441 52.6832C241.372 52.6832 241.314 52.6034 241.308 52.4985L241.041 47.1567C241.036 47.0468 241.091 46.951 241.164 46.9428C241.237 46.9342 241.301 47.017 241.307 47.1269L241.574 52.4687C241.579 52.5787 241.524 52.6745 241.451 52.6826C241.448 52.683 241.444 52.6832 241.441 52.6832Z" fill="#FFB6B6"/>
<path d="M239.437 41.1316C239.372 41.1316 239.315 41.0602 239.305 40.961C239.294 40.8519 239.345 40.7506 239.418 40.7346L245.852 39.3208C245.925 39.305 245.992 39.3803 246.003 39.4893C246.014 39.5984 245.963 39.6997 245.891 39.7157L239.456 41.1295C239.45 41.131 239.443 41.1316 239.437 41.1316Z" fill="#FFB6B6"/>
<path d="M201.638 98.9647C201.594 98.8513 201.399 98.9727 201.364 98.8698C201.328 98.7672 201.509 98.611 201.612 98.2541C201.63 98.1897 201.747 97.7841 201.661 97.659C201.496 97.4217 200.745 98.4007 200.482 98.0803C200.424 98.01 200.383 97.8697 200.209 97.6418C200.139 97.5512 200.097 97.5102 200.057 97.5255C199.999 97.5471 199.994 97.6629 199.932 97.8906C199.84 98.2321 199.785 98.2114 199.731 98.4839C199.69 98.6861 199.7 98.8037 199.652 98.8266C199.586 98.859 199.524 98.6445 199.439 98.6637C199.353 98.6833 199.301 98.9331 199.284 99.1201C199.253 99.4711 199.339 99.7026 199.387 99.9461C199.438 100.211 199.469 100.613 199.35 101.183L198.166 106.182C198.427 105.156 199.184 102.344 199.502 101.299C199.594 100.998 199.695 100.692 199.903 100.571C200.103 100.455 200.378 100.524 200.729 100.397C200.77 100.383 200.884 100.339 200.898 100.239C200.91 100.156 200.843 100.11 200.853 100.032C200.867 99.9281 200.999 99.9268 201.16 99.8067C201.274 99.722 201.345 99.6213 201.406 99.5347C201.425 99.5086 201.698 99.1156 201.638 98.9647Z" fill="#F2F2F2"/>
<path d="M196.982 101.597C196.932 101.597 196.916 101.775 196.872 101.771C196.828 101.768 196.829 101.59 196.741 101.411C196.726 101.379 196.627 101.176 196.561 101.204C196.436 101.256 196.539 102.091 196.359 102.193C196.319 102.215 196.261 102.204 196.136 102.267C196.087 102.292 196.061 102.311 196.054 102.345C196.045 102.394 196.081 102.431 196.138 102.542C196.223 102.709 196.2 102.743 196.274 102.862C196.329 102.949 196.37 102.977 196.364 103.018C196.355 103.077 196.267 103.06 196.249 103.128C196.23 103.197 196.297 103.308 196.353 103.374C196.459 103.498 196.56 103.501 196.653 103.537C196.755 103.575 196.896 103.668 197.048 103.921L198.343 106.234C198.082 105.746 197.38 104.378 197.13 103.842C197.057 103.688 196.986 103.525 197.007 103.337C197.027 103.156 197.129 102.974 197.189 102.679C197.196 102.645 197.214 102.548 197.185 102.509C197.162 102.476 197.127 102.512 197.105 102.482C197.075 102.442 197.112 102.345 197.12 102.191C197.125 102.083 197.112 102.002 197.101 101.932C197.098 101.911 197.048 101.596 196.982 101.597Z" fill="#F2F2F2"/>
<path d="M197.981 101.933L197.95 101.529L197.964 101.498C198.028 101.357 198.061 101.219 198.061 101.087C198.061 101.067 198.06 101.046 198.06 101.024C198.057 100.94 198.054 100.836 198.09 100.714C198.111 100.646 198.168 100.488 198.254 100.508C198.277 100.512 198.295 100.528 198.308 100.547L198.314 100.533C198.341 100.471 198.363 100.445 198.383 100.42C198.399 100.4 198.415 100.38 198.44 100.333C198.452 100.312 198.46 100.293 198.468 100.278C198.49 100.231 198.519 100.176 198.57 100.177C198.625 100.181 198.654 100.249 198.673 100.294C198.707 100.374 198.723 100.432 198.733 100.47C198.736 100.484 198.741 100.5 198.743 100.505C198.761 100.544 198.904 100.508 198.958 100.494C199.08 100.464 199.185 100.438 199.229 100.553C199.26 100.635 199.237 100.744 199.158 100.885C199.133 100.928 199.107 100.962 199.084 100.988C199.103 101.005 199.121 101.031 199.128 101.073C199.144 101.17 199.088 101.269 198.961 101.364C198.929 101.388 198.887 101.42 198.827 101.436C198.799 101.443 198.774 101.445 198.753 101.446C198.752 101.464 198.749 101.485 198.742 101.506C198.719 101.567 198.673 101.596 198.603 101.589C198.526 101.583 198.463 101.561 198.407 101.542C198.358 101.525 198.316 101.511 198.283 101.514C198.222 101.522 198.174 101.595 198.119 101.69L197.981 101.933Z" fill="#F2F2F2"/>
<path d="M198.121 99.5291L197.868 99.6752L197.845 99.663C197.737 99.6064 197.64 99.5943 197.555 99.6271C197.541 99.6322 197.528 99.6385 197.515 99.6448C197.461 99.6699 197.394 99.7012 197.306 99.6794C197.257 99.667 197.141 99.6238 197.132 99.4939C197.129 99.459 197.135 99.4295 197.144 99.4054L197.133 99.4002C197.086 99.3768 197.064 99.3527 197.042 99.3294C197.026 99.3115 197.009 99.2931 196.972 99.2682C196.955 99.2572 196.941 99.2493 196.929 99.2425C196.894 99.222 196.85 99.1938 196.838 99.1191C196.827 99.0386 196.863 98.9796 196.887 98.9406C196.931 98.8709 196.964 98.8339 196.986 98.8094C196.994 98.8004 197.004 98.7903 197.006 98.786C197.027 98.7504 196.967 98.5512 196.945 98.4761C196.894 98.3074 196.85 98.1614 196.914 98.0694C196.959 98.0035 197.035 98.0093 197.146 98.0877C197.18 98.1121 197.208 98.1414 197.231 98.1684C197.237 98.1362 197.25 98.1046 197.275 98.0841C197.334 98.0355 197.411 98.092 197.505 98.2518C197.529 98.2914 197.56 98.3449 197.585 98.4272C197.597 98.466 197.605 98.5022 197.611 98.5332C197.623 98.5291 197.637 98.5282 197.652 98.534C197.697 98.5507 197.728 98.6106 197.741 98.7138C197.757 98.827 197.759 98.9245 197.76 99.0105C197.762 99.0855 197.763 99.1501 197.774 99.1972C197.794 99.2841 197.854 99.3339 197.929 99.39L198.121 99.5291Z" fill="#F2F2F2"/>
<path d="M197.981 98.3399L197.95 97.9362L197.964 97.9056C198.028 97.7641 198.061 97.6259 198.061 97.4947C198.061 97.4738 198.06 97.453 198.06 97.4317C198.057 97.3475 198.054 97.2428 198.09 97.1208C198.111 97.0528 198.168 96.8953 198.254 96.9148C198.277 96.9197 198.295 96.9356 198.308 96.9544L198.314 96.9399C198.341 96.8785 198.363 96.8522 198.383 96.8269C198.399 96.8074 198.415 96.7873 198.44 96.7397C198.452 96.7189 198.46 96.7006 198.468 96.6852C198.49 96.6386 198.519 96.583 198.57 96.584C198.625 96.5879 198.654 96.6559 198.673 96.7009C198.707 96.7813 198.723 96.8392 198.733 96.8776C198.736 96.8916 198.741 96.9074 198.743 96.9122C198.761 96.9512 198.904 96.9148 198.958 96.9015C199.08 96.8711 199.185 96.8448 199.229 96.9598C199.26 97.0421 199.237 97.1508 199.158 97.2918C199.133 97.3356 199.107 97.3689 199.084 97.3951C199.103 97.4122 199.121 97.4385 199.128 97.4799C199.144 97.5777 199.088 97.6758 198.961 97.7717C198.929 97.7956 198.887 97.8276 198.827 97.843C198.799 97.8502 198.774 97.852 198.753 97.8529C198.752 97.8716 198.749 97.8919 198.742 97.9128C198.719 97.9742 198.673 98.0034 198.603 97.9964C198.526 97.9904 198.463 97.9683 198.407 97.949C198.358 97.9323 198.316 97.918 198.283 97.9213C198.222 97.9288 198.174 98.0022 198.119 98.0976L197.981 98.3399Z" fill="#F2F2F2"/>
<path d="M198.256 106.176L198.2 106.123L198.134 106.134C198.133 106.125 198.129 106.104 198.124 106.071C198.094 105.89 198.005 105.341 197.93 104.476C197.878 103.872 197.848 103.251 197.842 102.63C197.836 102.009 197.855 101.538 197.871 101.16C197.883 100.874 197.897 100.602 197.912 100.338C197.949 99.6306 197.985 98.9626 197.958 98.2231C197.953 98.058 197.94 97.7144 197.806 97.3487C197.729 97.1366 197.622 96.9483 197.488 96.7893L197.571 96.6329C197.718 96.8088 197.837 97.0173 197.923 97.2528C198.072 97.6582 198.085 98.0327 198.091 98.2126C198.118 98.9652 198.082 99.6396 198.044 100.354C198.03 100.617 198.016 100.888 198.004 101.172C197.988 101.547 197.969 102.014 197.975 102.627C197.981 103.241 198.01 103.854 198.062 104.45C198.136 105.304 198.224 105.845 198.253 106.023C198.269 106.118 198.272 106.138 198.256 106.176Z" fill="#F2F2F2"/>
<path d="M197.244 97.1064C197.239 97.1064 197.233 97.1062 197.228 97.1056C197.114 97.0965 197.009 96.9947 196.915 96.8033C196.871 96.7132 196.849 96.6105 196.804 96.4057C196.797 96.3741 196.763 96.2139 196.743 95.9934C196.729 95.8493 196.731 95.7891 196.75 95.7359C196.771 95.6766 196.805 95.6353 196.844 95.6075C196.842 95.5884 196.844 95.5687 196.849 95.5486C196.872 95.4654 196.932 95.4763 196.965 95.4815C196.981 95.4847 197.002 95.4887 197.024 95.487C197.059 95.4845 197.078 95.4689 197.106 95.4455C197.134 95.4231 197.167 95.3952 197.218 95.3798C197.317 95.3488 197.4 95.3909 197.427 95.4047C197.571 95.4767 197.642 95.6445 197.724 95.8388C197.741 95.8778 197.797 96.0197 197.834 96.2142C197.861 96.3546 197.857 96.417 197.849 96.4633C197.833 96.5587 197.794 96.6132 197.696 96.7337C197.593 96.8598 197.542 96.923 197.497 96.9614C197.395 97.0505 197.33 97.1064 197.244 97.1064Z" fill="#F2F2F2"/>
<path d="M276.092 76.2248L276.153 69.0922L274.326 68.3391L274.382 76.2258L273.961 82.0538L273.972 82.0599C273.796 82.3254 273.653 82.7493 273.592 83.2503C273.481 84.1646 273.685 84.9858 274.047 85.0847C274.409 85.1835 274.793 84.5225 274.904 83.6082C274.949 83.2329 274.941 82.8743 274.891 82.5739L274.908 82.583L276.092 76.2248Z" fill="#A0616A"/>
<path d="M272.77 59.4586C272.77 59.4586 273.599 58.5084 274.184 59.8971C274.769 61.2859 276.378 68.3025 276.378 68.3025C276.378 68.3025 276.843 71.5184 276.732 71.9935C276.622 72.4686 276.475 76.65 276.475 76.65L274.189 76.0284L274.245 71.9935L272.067 66.7811L272.77 59.4586Z" fill="#CCCCCC"/>
<path d="M257.461 56.8682L260.664 62.1425L262.342 60.8237L258.71 55.1174L256.363 50.4288L256.352 50.4356C256.36 50.0612 256.272 49.6052 256.088 49.1769C255.753 48.3952 255.23 48.0034 254.92 48.3017C254.611 48.6001 254.632 49.4757 254.967 50.2574C255.104 50.5783 255.274 50.832 255.447 51.0007L255.431 51.0107L257.461 56.8682Z" fill="#A0616A"/>
<path d="M267.706 65.7199C267.706 65.7199 267.533 67.2625 266.473 66.8465C265.413 66.4306 261.043 62.9501 261.043 62.9501C261.043 62.9501 259.238 61.0764 259.103 60.6159C258.967 60.1554 257.17 56.9503 257.17 56.9503L259.123 55.065L260.92 58.0699L264.886 59.6493L267.706 65.7199Z" fill="#CCCCCC"/>
<path d="M268.313 55.4266C269.718 55.4266 270.857 53.719 270.857 51.6127C270.857 49.5064 269.718 47.7988 268.313 47.7988C266.908 47.7988 265.769 49.5064 265.769 51.6127C265.769 53.719 266.908 55.4266 268.313 55.4266Z" fill="#A0616A"/>
<path d="M272.776 118.425L271.197 118.425L270.446 109.295L272.776 109.295L272.776 118.425Z" fill="#A0616A"/>
<path d="M267.366 118.372C267.317 118.496 267.291 118.896 267.291 119.041C267.291 119.484 267.531 119.844 267.827 119.844H272.717C272.919 119.844 273.082 119.599 273.082 119.296V118.991C273.082 118.991 273.324 118.074 272.826 116.943C272.826 116.943 272.207 117.828 271.282 116.442L271.01 115.701L269.035 117.866L267.941 118.068C267.702 118.112 267.489 118.061 267.366 118.372Z" fill="#2F2E41"/>
<path d="M268.249 118.425L266.67 118.425L265.919 109.295L268.249 109.295L268.249 118.425Z" fill="#A0616A"/>
<path d="M262.84 118.372C262.79 118.496 262.764 118.896 262.764 119.041C262.764 119.484 263.004 119.844 263.3 119.844H268.19C268.392 119.844 268.556 119.599 268.556 119.296V118.991C268.556 118.991 268.798 118.074 268.3 116.943C268.3 116.943 267.681 117.828 266.756 116.442L266.483 115.701L264.509 117.866L263.414 118.068C263.175 118.112 262.963 118.061 262.84 118.372Z" fill="#2F2E41"/>
<path d="M273.896 78.8019L263.644 79.6003L265.907 114.331L268.171 114.131L268.97 93.1731L269.302 85.6881L270.66 113.557L272.964 113.532L273.896 78.8019Z" fill="#2F2E41"/>
<path d="M270.859 56.4469L266.976 56.2473L264.376 60.1229V72.8195L263.361 80.7979C263.361 80.7979 270.189 79.7999 271.528 81.7959C272.867 83.7919 275.277 82.3947 275.277 82.3947L274.072 71.8388L273.536 59.6404L270.859 56.4469Z" fill="#CCCCCC"/>
<path d="M269.433 55.3491L267.269 54.5826L266.935 52.6155C266.935 52.6155 266.927 51.6882 266.635 51.5848C266.343 51.4814 265.828 50.8367 265.828 50.8367L266.327 49.6268C266.327 49.6268 265.124 49.432 265.485 49.0977C265.846 48.7633 265.898 48.914 265.95 48.1067C266.056 46.4363 269.465 46.6801 269.73 47.5966C269.73 47.5966 270.168 47.7517 270.391 48.2929C270.614 48.8341 270.725 49.1047 270.871 49.1564C271.017 49.2081 271.094 49.6976 271.094 49.6976C271.094 49.6976 271.609 50.3422 271.429 50.5094C271.248 50.6766 271.11 51.5522 271.11 51.5522C271.11 51.5522 271.591 52.4157 270.516 54.346L269.943 55.7272L269.433 55.3491Z" fill="#2F2E41"/>
<path d="M272.212 60.9581L272.364 59.4116C272.474 58.2845 271.976 57.3009 271.3 57.0588V56.4176C271.3 55.8664 271.001 55.4196 270.634 55.4196C270.266 55.4196 269.968 55.8664 269.968 56.4176V57.2729L267.438 58.0773V57.0164C267.438 56.4652 267.14 56.0184 266.773 56.0184C266.405 56.0184 266.107 56.4652 266.107 57.0164V58.0247L265.856 57.9263C265.105 57.6326 264.511 58.9244 264.978 59.8537C264.984 59.8657 264.991 59.8777 264.997 59.8898C265.62 61.0917 265.798 62.16 265.798 62.16L265.353 65.7657L265.86 73.2622C265.926 74.2284 266.48 74.9523 267.128 74.9164L272.053 74.6429C272.7 74.607 273.218 73.8251 273.235 72.8551C273.298 69.3999 273.305 61.8799 272.212 60.9581Z" fill="#3F3D56"/>
<path d="M267.803 73.9113C267.734 73.9113 267.675 73.8314 267.67 73.7266L267.403 68.3848C267.397 68.2748 267.452 68.179 267.526 68.1708C267.598 68.1623 267.663 68.245 267.668 68.3549L267.936 73.6967C267.941 73.8067 267.886 73.9025 267.813 73.9107C267.809 73.9111 267.806 73.9113 267.803 73.9113Z" fill="#FFB6B6"/>
<path d="M265.798 62.3597C265.733 62.3597 265.676 62.2882 265.667 62.189C265.656 62.08 265.706 61.9786 265.779 61.9626L272.214 60.5488C272.286 60.5331 272.354 60.6083 272.365 60.7174C272.375 60.8264 272.325 60.9278 272.252 60.9438L265.818 62.3575C265.811 62.359 265.805 62.3597 265.798 62.3597Z" fill="#FFB6B6"/>
<path d="M266.092 74.2308L263.577 65.1294L264.243 65.5286L266.921 73.5927L266.092 74.2308Z" fill="#3F3D56"/>
<path d="M281.781 119.832C281.781 119.925 281.731 120 281.669 120H204.155V119.665H281.669C281.731 119.665 281.781 119.74 281.781 119.832Z" fill="#E6E6E6"/>
<path d="M254.306 48.6765C254.737 49.2855 255.297 49.4451 255.555 49.0331C255.814 48.6211 255.673 47.7935 255.241 47.1844C255.071 46.9375 254.864 46.7554 254.637 46.6533L252.786 44.1076L252.007 45.4355L253.915 47.8041C253.997 48.1375 254.131 48.4367 254.306 48.6765Z" fill="#FFB6B6"/>
<path d="M252.721 35.4873C252.721 35.4873 250.464 31.272 249.598 31.5968C248.533 31.996 248.799 33.5928 247.697 37.8634C247.421 38.933 247.131 39.9695 247.688 40.7558L249.224 42.9236L252.497 47.0609L253.814 44.9944L251.198 39.9372L252.721 35.4873Z" fill="#191970"/>
</g>
<defs>
<filter id="filter0_d_434_110" x="0" y="0" width="318" height="161" filterUnits="userSpaceOnUse" color-interpolation-filters="sRGB">
<feFlood flood-opacity="0" result="BackgroundImageFix"/>
<feColorMatrix in="SourceAlpha" type="matrix" values="0 0 0 0 0 0 0 0 0 0 0 0 0 0 0 0 0 0 127 0" result="hardAlpha"/>
<feOffset dy="4"/>
<feGaussianBlur stdDeviation="2"/>
<feComposite in2="hardAlpha" operator="out"/>
<feColorMatrix type="matrix" values="0 0 0 0 0 0 0 0 0 0 0 0 0 0 0 0 0 0 0.25 0"/>
<feBlend mode="normal" in2="BackgroundImageFix" result="effect1_dropShadow_434_110"/>
<feBlend mode="normal" in="SourceGraphic" in2="effect1_dropShadow_434_110" result="shape"/>
</filter>
<linearGradient id="paint0_linear_434_110" x1="4" y1="4.99999" x2="332.894" y2="130.446" gradientUnits="userSpaceOnUse">
<stop stop-color="#0A3C77"/>
<stop offset="1" stop-color="#83B2EA"/>
</linearGradient>
<linearGradient id="paint1_linear_434_110" x1="330.724" y1="164" x2="-19.9277" y2="49.577" gradientUnits="userSpaceOnUse">
<stop offset="0.278909" stop-color="#08294F"/>
<stop offset="0.698549" stop-color="#6893C7" stop-opacity="0.43"/>
</linearGradient>
<clipPath id="clip0_434_110">
<rect width="87.0787" height="100" fill="white" transform="translate(194.702 20)"/>
</clipPath>
</defs>
</svg>
