<svg width="37" height="38" viewBox="0 0 37 38" fill="none" xmlns="http://www.w3.org/2000/svg">
<path d="M35.2973 10.5398L20.0281 0.5L6.95278 10.5398C5.84933 11.0105 5.84933 13.0372 6.95278 13.5079L9.23232 14.4806C8.73216 15.3393 8.42466 16.3868 8.39419 17.5339C7.94278 17.8933 7.62497 18.5418 7.62497 19.3158C7.62497 20.0177 7.89122 20.6081 8.27466 20.9857L1.00003 25.5C0.89597 26.1504 -0.309633 28.4649 4.5 29.7324L7.15834 29.1376C4.18843 29.1376 3.25067 31 6.95277 29.7324L9.97529 20.9857C10.3587 20.6081 10.625 20.0177 10.625 19.3158C10.625 18.5626 10.3217 17.9324 9.89091 17.5665C9.92654 16.5886 10.2865 15.7241 10.8608 15.1759L20.0281 13.5079C20.4528 13.6889 21.2675 13.9155 22.2214 13.5086H35.2973C36.4012 13.0372 36.4012 11.0112 35.2973 10.5398ZM22.2214 13.5086C20.8841 14.0789 22.2214 9.48256 20.0281 13.5079L6.95278 10.5398L10.625 19.3158C10.625 21.6173 15.0575 13.5079 20.0281 13.5079C24.9988 13.5079 32.5 21.6173 32.5 19.3158L35.2973 13.5086H22.2214Z" fill="white"/>
<path d="M24.1918 25.0877L19.4457 23.7219C18.8964 23.5663 18.5141 23.0606 18.5141 22.4988C18.5141 21.7943 19.0941 21.2238 19.8104 21.2238H22.724C23.2601 21.2238 23.7875 21.3837 24.2269 21.6776C24.495 21.8548 24.8554 21.8116 25.0839 21.5911L26.6132 20.1216C26.9252 19.8234 26.8812 19.3264 26.5341 19.0627C25.4574 18.2329 24.1127 17.7704 22.7328 17.7661V15.6915C22.7328 15.3112 22.4164 15 22.0297 15H20.6234C20.2367 15 19.9203 15.3112 19.9203 15.6915V17.7661H19.8104C17.0111 17.7661 14.7611 20.1303 15.0204 22.9353C15.205 24.9278 16.7518 26.5485 18.703 27.1104L23.2074 28.407C23.7567 28.5669 24.1391 29.0683 24.1391 29.6301C24.1391 30.3346 23.559 30.9052 22.8427 30.9052H19.9291C19.393 30.9052 18.8656 30.7452 18.4262 30.4513C18.1581 30.2741 17.7977 30.3174 17.5692 30.5378L16.0399 32.0073C15.7279 32.3055 15.7719 32.8025 16.119 33.0662C17.1957 33.896 18.5404 34.3585 19.9203 34.3628V36.4374C19.9203 36.8177 20.2367 37.1289 20.6234 37.1289H22.0297C22.4164 37.1289 22.7328 36.8177 22.7328 36.4374V34.3541C24.7807 34.3152 26.7011 33.118 27.3778 31.212C28.3226 28.5496 26.7362 25.8181 24.1918 25.0877Z" fill="white"/>
</svg>
