<svg width="40" height="30" viewBox="0 0 40 30" fill="none" xmlns="http://www.w3.org/2000/svg">
<path d="M33.3333 25.7143V26.7857C33.3333 28.5609 31.841 30 30 30H3.33333C1.49236 30 0 28.5609 0 26.7857V9.64286C0 7.86763 1.49236 6.42857 3.33333 6.42857H4.44444V20.3571C4.44444 23.3111 6.93667 25.7143 10 25.7143H33.3333ZM40 20.3571V3.21429C40 1.43906 38.5076 0 36.6667 0H10C8.15903 0 6.66667 1.43906 6.66667 3.21429V20.3571C6.66667 22.1324 8.15903 23.5714 10 23.5714H36.6667C38.5076 23.5714 40 22.1324 40 20.3571ZM17.7778 6.42857C17.7778 8.20379 16.2854 9.64286 14.4444 9.64286C12.6035 9.64286 11.1111 8.20379 11.1111 6.42857C11.1111 4.65335 12.6035 3.21429 14.4444 3.21429C16.2854 3.21429 17.7778 4.65335 17.7778 6.42857ZM11.1111 16.0714L14.9663 12.3539C15.2917 12.0401 15.8194 12.0401 16.1449 12.3539L18.8889 15L28.2997 5.92533C28.6251 5.61154 29.1527 5.61154 29.4782 5.92533L35.5556 11.7857V19.2857H11.1111V16.0714Z" fill="#191970"/>
</svg>
