<svg width="25" height="30" viewBox="0 0 25 30" fill="none" xmlns="http://www.w3.org/2000/svg">
<path d="M14.5833 7.96875V0H1.5625C0.696615 0 0 0.626953 0 1.40625V28.5938C0 29.373 0.696615 30 1.5625 30H23.4375C24.3034 30 25 29.373 25 28.5938V9.375H16.1458C15.2865 9.375 14.5833 8.74219 14.5833 7.96875ZM18.75 21.7969C18.75 22.1836 18.3984 22.5 17.9687 22.5H7.03125C6.60156 22.5 6.25 22.1836 6.25 21.7969V21.3281C6.25 20.9414 6.60156 20.625 7.03125 20.625H17.9687C18.3984 20.625 18.75 20.9414 18.75 21.3281V21.7969ZM18.75 18.0469C18.75 18.4336 18.3984 18.75 17.9687 18.75H7.03125C6.60156 18.75 6.25 18.4336 6.25 18.0469V17.5781C6.25 17.1914 6.60156 16.875 7.03125 16.875H17.9687C18.3984 16.875 18.75 17.1914 18.75 17.5781V18.0469ZM18.75 13.8281V14.2969C18.75 14.6836 18.3984 15 17.9687 15H7.03125C6.60156 15 6.25 14.6836 6.25 14.2969V13.8281C6.25 13.4414 6.60156 13.125 7.03125 13.125H17.9687C18.3984 13.125 18.75 13.4414 18.75 13.8281ZM25 7.14258V7.5H16.6667V0H17.0638C17.4805 0 17.8776 0.146484 18.1706 0.410156L24.5443 6.15234C24.8372 6.41602 25 6.77344 25 7.14258Z" fill="#191970"/>
</svg>
