<svg width="150" height="100" viewBox="0 0 150 100" fill="none" xmlns="http://www.w3.org/2000/svg">
<g clip-path="url(#clip0_16_8)">
<path d="M75.4719 0H8.55729C6.28853 0.00224299 4.11343 0.794562 2.50919 2.20313C0.904936 3.61169 0.00254895 5.52147 0 7.51348V76.5009C0.00254942 78.4929 0.904938 80.4027 2.50919 81.8112C4.11344 83.2198 6.28853 84.0121 8.55729 84.0143H75.4719C77.7406 84.0121 79.9157 83.2198 81.52 81.8112C83.1242 80.4027 84.0266 78.4929 84.0291 76.5009V7.51348C84.0266 5.52147 83.1242 3.61169 81.52 2.20313C79.9157 0.794562 77.7406 0.00224299 75.4719 0Z" fill="#F2F2F2"/>
<path d="M75.4719 2.16296H8.55728C6.94164 2.16455 5.3927 2.72878 4.25028 3.73185C3.10785 4.73492 2.46524 6.09492 2.46342 7.51348V76.5009C2.46524 77.9194 3.10785 79.2794 4.25028 80.2825C5.39271 81.2856 6.94165 81.8498 8.55728 81.8514H75.4719C77.0875 81.8498 78.6365 81.2855 79.7789 80.2825C80.9213 79.2794 81.5639 77.9194 81.5657 76.5009V7.51348C81.5639 6.09493 80.9213 4.73494 79.7789 3.73187C78.6365 2.7288 77.0875 2.16457 75.4719 2.16296Z" fill="white"/>
<path d="M65.4012 22.2227H31.563C31.185 22.2227 30.8226 22.0908 30.5553 21.8562C30.2881 21.6216 30.138 21.3033 30.138 20.9715C30.138 20.6396 30.2881 20.3214 30.5553 20.0867C30.8226 19.8521 31.185 19.7203 31.563 19.7203H65.4012C65.5884 19.7203 65.7737 19.7526 65.9466 19.8155C66.1195 19.8784 66.2765 19.9706 66.4089 20.0867C66.5412 20.2029 66.6462 20.3409 66.7178 20.4927C66.7894 20.6445 66.8262 20.8072 66.8262 20.9715C66.8262 21.1358 66.7894 21.2985 66.7178 21.4503C66.6462 21.6021 66.5412 21.74 66.4089 21.8562C66.2765 21.9724 66.1195 22.0645 65.9466 22.1274C65.7737 22.1903 65.5884 22.2227 65.4012 22.2227Z" fill="#F2F2F2"/>
<path d="M71.2794 26.4454H31.563C31.1853 26.4451 30.8233 26.3131 30.5564 26.0785C30.2895 25.8439 30.1396 25.5258 30.1396 25.1943C30.1396 24.8627 30.2895 24.5446 30.5564 24.31C30.8233 24.0754 31.1853 23.9434 31.563 23.9431H71.2794C71.6571 23.9434 72.0192 24.0754 72.2861 24.31C72.553 24.5446 72.7029 24.8627 72.7029 25.1943C72.7029 25.5258 72.553 25.8439 72.2861 26.0785C72.0192 26.3131 71.6571 26.4451 71.2794 26.4454Z" fill="#F2F2F2"/>
<path d="M65.4012 41.147H31.563C31.185 41.147 30.8226 41.0152 30.5553 40.7805C30.2881 40.5459 30.138 40.2276 30.138 39.8958C30.138 39.564 30.2881 39.2457 30.5553 39.0111C30.8226 38.7764 31.185 38.6446 31.563 38.6446H65.4012C65.5884 38.6446 65.7737 38.677 65.9466 38.7398C66.1195 38.8027 66.2765 38.8949 66.4089 39.0111C66.5412 39.1272 66.6462 39.2652 66.7178 39.417C66.7894 39.5688 66.8262 39.7315 66.8262 39.8958C66.8262 40.0601 66.7894 40.2228 66.7178 40.3746C66.6462 40.5264 66.5412 40.6643 66.4089 40.7805C66.2765 40.8967 66.1195 40.9889 65.9466 41.0517C65.7737 41.1146 65.5884 41.147 65.4012 41.147Z" fill="#F2F2F2"/>
<path d="M71.2794 45.3698H31.563C31.1853 45.3694 30.8233 45.2374 30.5564 45.0028C30.2895 44.7682 30.1396 44.4502 30.1396 44.1186C30.1396 43.787 30.2895 43.4689 30.5564 43.2343C30.8233 42.9997 31.1853 42.8677 31.563 42.8674H71.2794C71.6571 42.8677 72.0192 42.9997 72.2861 43.2343C72.553 43.4689 72.7029 43.787 72.7029 44.1186C72.7029 44.4502 72.553 44.7682 72.2861 45.0028C72.0192 45.2374 71.6571 45.3694 71.2794 45.3698Z" fill="#F2F2F2"/>
<path d="M65.4012 60.0713H31.563C31.185 60.0713 30.8226 59.9395 30.5553 59.7048C30.2881 59.4702 30.138 59.1519 30.138 58.8201C30.138 58.4883 30.2881 58.17 30.5553 57.9354C30.8226 57.7007 31.185 57.5689 31.563 57.5689H65.4012C65.5885 57.5687 65.774 57.601 65.9471 57.6637C66.1201 57.7265 66.2774 57.8187 66.4099 57.9349C66.5424 58.0511 66.6475 58.1891 66.7192 58.341C66.7909 58.4929 66.8278 58.6557 66.8278 58.8201C66.8278 58.9845 66.7909 59.1473 66.7192 59.2992C66.6475 59.4511 66.5424 59.5891 66.4099 59.7053C66.2774 59.8215 66.1201 59.9137 65.9471 59.9765C65.774 60.0393 65.5885 60.0715 65.4012 60.0713Z" fill="#F2F2F2"/>
<path d="M71.2794 64.2941H31.563C31.1853 64.2937 30.8233 64.1617 30.5564 63.9271C30.2895 63.6925 30.1396 63.3745 30.1396 63.0429C30.1396 62.7113 30.2895 62.3933 30.5564 62.1587C30.8233 61.924 31.1853 61.7921 31.563 61.7917H71.2794C71.6571 61.7921 72.0192 61.924 72.2861 62.1587C72.553 62.3933 72.7029 62.7113 72.7029 63.0429C72.7029 63.3745 72.553 63.6925 72.2861 63.9271C72.0192 64.1617 71.6571 64.2937 71.2794 64.2941Z" fill="#F2F2F2"/>
<path d="M23.983 28.3624H12.008C11.8268 28.3622 11.6531 28.2989 11.525 28.1865C11.3969 28.074 11.3249 27.9215 11.3247 27.7624V18.4032C11.3249 18.2442 11.3969 18.0917 11.525 17.9792C11.6531 17.8667 11.8268 17.8035 12.008 17.8033H23.983C24.1642 17.8035 24.3379 17.8667 24.466 17.9792C24.5941 18.0917 24.6661 18.2442 24.6663 18.4032V27.7624C24.6661 27.9215 24.5941 28.074 24.466 28.1865C24.3379 28.2989 24.1642 28.3622 23.983 28.3624Z" fill="#E6E6E6"/>
<path d="M23.983 47.2867H12.008C11.8268 47.2866 11.6531 47.2233 11.525 47.1108C11.3969 46.9983 11.3249 46.8458 11.3247 46.6868V37.3276C11.3249 37.1685 11.3969 37.016 11.525 36.9035C11.6531 36.7911 11.8268 36.7278 12.008 36.7276H23.983C24.1642 36.7278 24.3379 36.7911 24.466 36.9035C24.5941 37.016 24.6661 37.1685 24.6663 37.3276V46.6868C24.6661 46.8458 24.594 46.9983 24.4659 47.1108C24.3378 47.2233 24.1642 47.2866 23.983 47.2867Z" fill="#E6E6E6"/>
<path d="M23.983 66.211H12.008C11.8268 66.2109 11.6531 66.1476 11.525 66.0351C11.3969 65.9227 11.3249 65.7702 11.3247 65.6111V56.2519C11.3249 56.0928 11.3969 55.9403 11.525 55.8279C11.6531 55.7154 11.8268 55.6521 12.008 55.6519H23.983C24.1642 55.6521 24.3379 55.7154 24.466 55.8279C24.5941 55.9403 24.6661 56.0928 24.6663 56.2519V65.6111C24.6661 65.7702 24.5941 65.9227 24.466 66.0351C24.3379 66.1476 24.1642 66.2109 23.983 66.211Z" fill="#E6E6E6"/>
<path d="M134.419 65.2458L134.95 61.1696L137.612 40.7318L138.143 36.6556C138.398 34.6762 137.748 32.6888 136.337 31.1293C134.925 29.5699 132.867 28.5657 130.613 28.3372L70.2162 22.2734C67.9619 22.0493 65.6983 22.6195 63.9222 23.8589C62.1461 25.0984 61.0024 26.9058 60.7421 28.8846L60.7408 28.8951L57.0201 57.4643L57.0187 57.4748C56.7635 59.4542 57.413 61.4416 58.8246 63.0011C60.2362 64.5605 62.2947 65.5647 64.5484 65.7932L124.945 71.857C127.199 72.0811 129.463 71.5109 131.239 70.2715C133.015 69.0321 134.159 67.2247 134.419 65.2458Z" fill="#E6E6E6"/>
<path d="M131.972 65.0002L132.6 60.1722L135.066 41.2378L135.695 36.4099C135.877 35.0003 135.414 33.585 134.409 32.4745C133.404 31.364 131.938 30.6489 130.333 30.4861L69.9364 24.4223C68.331 24.2627 66.7191 24.6688 65.4543 25.5514C64.1894 26.4341 63.375 27.7212 63.1897 29.1303L63.1883 29.1409L59.4676 57.71L59.4662 57.7206C59.2845 59.1302 59.747 60.5454 60.7522 61.656C61.7575 62.7665 63.2234 63.4816 64.8283 63.6443L125.225 69.7081C126.83 69.8677 128.442 69.4616 129.707 68.579C130.972 67.6964 131.786 66.4093 131.972 65.0002Z" fill="white"/>
<path d="M122.086 39.096L88.4665 35.7206C88.2805 35.7021 88.1004 35.6516 87.9366 35.5719C87.7728 35.4923 87.6284 35.385 87.5118 35.2564C87.3953 35.1277 87.3087 34.9801 87.2571 34.8221C87.2055 34.664 87.1899 34.4986 87.2112 34.3352C87.2325 34.1719 87.2902 34.0138 87.3811 33.8701C87.472 33.7263 87.5943 33.5997 87.7409 33.4975C87.8876 33.3953 88.0557 33.3194 88.2358 33.2743C88.4159 33.2291 88.6043 33.2156 88.7903 33.2344L122.409 36.6098C122.785 36.6478 123.127 36.815 123.362 37.0748C123.597 37.3345 123.705 37.6654 123.662 37.9949C123.619 38.3244 123.429 38.6254 123.133 38.8319C122.838 39.0383 122.461 39.1333 122.086 39.096Z" fill="#E6E6E6"/>
<path d="M127.379 43.8778L87.9201 39.9161C87.7341 39.8975 87.554 39.847 87.3902 39.7673C87.2264 39.6877 87.0821 39.5804 86.9655 39.4518C86.849 39.3231 86.7624 39.1755 86.7108 39.0175C86.6592 38.8594 86.6436 38.694 86.6649 38.5307C86.6862 38.3673 86.7439 38.2093 86.8348 38.0655C86.9257 37.9218 87.0479 37.7952 87.1946 37.6929C87.3412 37.5907 87.5094 37.5149 87.6894 37.4697C87.8695 37.4246 88.0579 37.411 88.2439 37.4299L127.703 41.3916C127.889 41.4102 128.069 41.4609 128.233 41.5406C128.396 41.6203 128.541 41.7276 128.657 41.8562C128.773 41.9848 128.86 42.1323 128.911 42.2903C128.963 42.4482 128.978 42.6136 128.957 42.7768C128.936 42.9401 128.878 43.098 128.787 43.2417C128.697 43.3854 128.575 43.512 128.428 43.6142C128.282 43.7164 128.113 43.7923 127.934 43.8375C127.754 43.8828 127.565 43.8964 127.379 43.8778Z" fill="#E6E6E6"/>
<path d="M126.279 52.2455L68.104 46.4047C67.7288 46.3667 67.3862 46.1994 67.1513 45.9397C66.9165 45.68 66.8087 45.349 66.8516 45.0196C66.8945 44.6901 67.0846 44.3891 67.3802 44.1826C67.6757 43.9761 68.0525 43.8811 68.4278 43.9185L126.603 49.7593C126.789 49.7778 126.969 49.8283 127.133 49.908C127.297 49.9877 127.441 50.0949 127.558 50.2236C127.674 50.3522 127.761 50.4998 127.812 50.6578C127.864 50.8159 127.88 50.9813 127.858 51.1446C127.837 51.308 127.779 51.4661 127.688 51.6098C127.598 51.7535 127.475 51.8802 127.329 51.9824C127.182 52.0846 127.014 52.1605 126.834 52.2056C126.654 52.2508 126.465 52.2643 126.279 52.2455Z" fill="#E6E6E6"/>
<path d="M125.92 56.4597L67.5576 50.6001C67.1824 50.5621 66.8398 50.3949 66.6049 50.1351C66.3701 49.8754 66.2623 49.5445 66.3052 49.215C66.3481 48.8855 66.5382 48.5845 66.8338 48.378C67.1293 48.1716 67.5061 48.0766 67.8814 48.1139L126.244 53.9735C126.619 54.0115 126.961 54.1787 127.196 54.4384C127.431 54.6981 127.539 55.0291 127.496 55.3586C127.453 55.688 127.263 55.9891 126.967 56.1955C126.672 56.402 126.295 56.497 125.92 56.4597Z" fill="#E6E6E6"/>
<path d="M125.209 60.4664L67.0334 54.6257C66.8473 54.6071 66.6672 54.5566 66.5034 54.477C66.3396 54.3973 66.1953 54.2901 66.0787 54.1614C65.9621 54.0327 65.8755 53.8852 65.824 53.7271C65.7724 53.5691 65.7568 53.4036 65.778 53.2403C65.7993 53.0769 65.857 52.9189 65.9479 52.7751C66.0388 52.6314 66.1611 52.5047 66.3078 52.4025C66.4544 52.3003 66.6226 52.2244 66.8026 52.1793C66.9827 52.1342 67.1711 52.1206 67.3572 52.1395L125.532 57.9803C125.908 58.0183 126.25 58.1855 126.485 58.4452C126.72 58.7049 126.828 59.0359 126.785 59.3654C126.742 59.6948 126.552 59.9959 126.256 60.2023C125.961 60.4088 125.584 60.5038 125.209 60.4664Z" fill="#E6E6E6"/>
<path d="M124.849 64.6807L66.487 58.8211C66.1118 58.7831 65.7691 58.6159 65.5343 58.3562C65.2994 58.0964 65.1916 57.7655 65.2345 57.436C65.2774 57.1065 65.4676 56.8055 65.7631 56.599C66.0587 56.3926 66.4355 56.2976 66.8108 56.3349L125.173 62.1945C125.359 62.213 125.539 62.2635 125.703 62.3432C125.867 62.4228 126.011 62.5301 126.128 62.6587C126.244 62.7874 126.331 62.935 126.382 63.093C126.434 63.2511 126.45 63.4165 126.428 63.5799C126.407 63.7432 126.349 63.9013 126.258 64.045C126.168 64.1888 126.045 64.3154 125.899 64.4176C125.752 64.5199 125.584 64.5957 125.404 64.6409C125.224 64.686 125.035 64.6995 124.849 64.6807Z" fill="#E6E6E6"/>
<path d="M80.1412 41.0645L68.2437 39.87C68.0638 39.8518 67.8994 39.7716 67.7867 39.6471C67.6739 39.5225 67.6221 39.3638 67.6425 39.2058L68.8535 29.9072C68.8742 29.7492 68.9656 29.6048 69.1074 29.5059C69.2492 29.4069 69.43 29.3614 69.61 29.3793L81.5075 30.5738C81.6874 30.592 81.8518 30.6722 81.9645 30.7967C82.0772 30.9213 82.1291 31.0799 82.1087 31.238L80.8977 40.5366C80.8769 40.6946 80.7856 40.8389 80.6438 40.9379C80.502 41.0369 80.3212 41.0824 80.1412 41.0645Z" fill="#6C63FF"/>
<path d="M149.822 99.9752H110.881C110.834 99.9752 110.789 99.9588 110.755 99.9295C110.722 99.9002 110.703 99.8605 110.703 99.8191C110.703 99.7777 110.722 99.738 110.755 99.7087C110.789 99.6794 110.834 99.663 110.881 99.663H149.822C149.869 99.663 149.915 99.6794 149.948 99.7087C149.981 99.738 150 99.7777 150 99.8191C150 99.8605 149.981 99.9002 149.948 99.9295C149.915 99.9588 149.869 99.9752 149.822 99.9752Z" fill="#3F3D56"/>
<path d="M135.2 40.33C135.14 40.5375 135.133 40.7539 135.178 40.9642C135.224 41.1744 135.322 41.3732 135.465 41.5467C135.607 41.7202 135.792 41.8641 136.005 41.9683C136.218 42.0725 136.454 42.1344 136.697 42.1497L137.902 45.3235L140.277 45.1512L138.504 40.6901C138.506 40.3298 138.358 39.9813 138.087 39.7106C137.816 39.4399 137.441 39.2659 137.034 39.2215C136.627 39.1771 136.215 39.2655 135.877 39.4698C135.539 39.6741 135.298 39.9801 135.2 40.33Z" fill="#FFB8B8"/>
<path d="M137.019 61.114C137.297 61.3385 137.638 61.4945 138.007 61.5663C138.376 61.6382 138.76 61.6233 139.121 61.5231C139.481 61.423 139.805 61.2412 140.06 60.996C140.314 60.7508 140.491 60.451 140.572 60.1268L142.453 52.559C142.775 51.2649 142.699 49.919 142.233 48.659L140.032 42.6989C140 42.6134 139.948 42.5348 139.878 42.4687C139.809 42.4025 139.724 42.3503 139.63 42.3155C139.535 42.2808 139.433 42.2644 139.331 42.2674C139.229 42.2705 139.128 42.2929 139.037 42.3332L137.6 42.9648C137.451 43.0302 137.333 43.1394 137.266 43.2733C137.2 43.4071 137.189 43.5573 137.235 43.6976L137.38 44.1351C138.585 47.7728 138.648 51.6288 137.563 55.2955L136.393 59.2501C136.295 59.5814 136.301 59.9299 136.412 60.2583C136.522 60.5866 136.732 60.8824 137.019 61.114Z" fill="#6C63FF"/>
<path d="M129.492 98.3426L127.459 98.3425L126.492 91.458L129.492 91.4582L129.492 98.3426Z" fill="#FFB8B8"/>
<path d="M126.007 97.8324H129.927V99.9997H123.538C123.538 99.7151 123.602 99.4333 123.726 99.1703C123.85 98.9074 124.032 98.6685 124.261 98.4672C124.49 98.266 124.763 98.1063 125.062 97.9974C125.362 97.8885 125.683 97.8324 126.007 97.8324Z" fill="white"/>
<path d="M140.449 98.3426L138.416 98.3425L137.449 91.458L140.449 91.4582L140.449 98.3426Z" fill="#FFB8B8"/>
<path d="M136.964 97.8324H140.884V99.9997H134.495C134.495 99.7151 134.559 99.4333 134.683 99.1703C134.807 98.9074 134.989 98.6685 135.218 98.4672C135.448 98.266 135.72 98.1063 136.019 97.9974C136.319 97.8885 136.64 97.8324 136.964 97.8324Z" fill="white"/>
<path d="M134.495 49.4016C136.907 49.4016 138.863 47.6848 138.863 45.5671C138.863 43.4493 136.907 41.7325 134.495 41.7325C132.083 41.7325 130.128 43.4493 130.128 45.5671C130.128 47.6848 132.083 49.4016 134.495 49.4016Z" fill="#FFB8B8"/>
<path d="M119.562 70.5747C119.593 70.3624 119.676 70.1585 119.806 69.9774C119.936 69.7963 120.109 69.6425 120.314 69.5267C120.519 69.4109 120.751 69.336 120.992 69.3072C121.234 69.2784 121.479 69.2965 121.712 69.3602L124.153 66.7912L126.293 67.7128L122.788 71.2981C122.64 71.6343 122.357 71.9112 121.992 72.0764C121.628 72.2416 121.207 72.2836 120.809 72.1944C120.411 72.1053 120.065 71.8911 119.835 71.5926C119.605 71.2941 119.508 70.9319 119.562 70.5747Z" fill="#FFB8B8"/>
<path d="M135.559 49.4015C136.216 49.4139 136.869 49.3041 137.474 49.0793C138.08 48.8544 138.624 48.5196 139.072 48.0968C139.52 47.6741 139.86 47.1729 140.072 46.6263C140.283 46.0797 140.36 45.5 140.298 44.9253C140.236 44.3506 140.036 43.794 139.712 43.2919C139.387 42.7899 138.945 42.3538 138.415 42.0124C137.885 41.6709 137.279 41.4319 136.636 41.3109C135.993 41.1899 135.328 41.1897 134.686 41.3103C133.725 40.7983 132.609 40.4538 131.489 40.5414C130.37 40.629 129.263 41.2124 128.845 42.1279C128.426 43.0435 128.876 44.2503 129.917 44.6224C130.584 44.8609 131.337 44.7452 132.049 44.649C132.761 44.5528 133.538 44.4901 134.157 44.8126C134.777 45.1352 135.055 46 134.501 46.4033C134.206 46.6255 133.996 46.9211 133.898 47.2508C133.8 47.5805 133.819 47.9286 133.952 48.2487C134.231 48.882 134.992 49.3907 135.559 49.4015Z" fill="#2F2E41"/>
<path d="M140.977 70.4231L141.752 96.2365C141.754 96.3226 141.737 96.4082 141.7 96.4879C141.663 96.5677 141.608 96.6399 141.538 96.7C141.467 96.7601 141.384 96.8068 141.292 96.8372C141.2 96.8676 141.102 96.8811 141.005 96.8767L138.453 96.7624C138.29 96.7551 138.135 96.6989 138.013 96.6032C137.892 96.5075 137.812 96.3781 137.786 96.2367L134.751 79.4707C134.738 79.399 134.697 79.3334 134.635 79.2854C134.573 79.2374 134.493 79.2099 134.411 79.2076C134.328 79.2054 134.247 79.2285 134.182 79.273C134.116 79.3176 134.071 79.3807 134.053 79.4516L129.944 95.5943C129.922 95.6806 129.879 95.7618 129.819 95.8326C129.758 95.9033 129.682 95.962 129.594 96.0048C129.505 96.0475 129.408 96.0733 129.308 96.0805C129.207 96.0877 129.106 96.0761 129.011 96.0465L126.479 95.9107C126.332 95.8649 126.207 95.7783 126.122 95.664C126.037 95.5497 125.996 95.4141 126.007 95.2779L128.218 70.1788L140.977 70.4231Z" fill="#B6B3E0"/>
<path d="M142.22 58.1626C142.648 54.2508 139.372 50.7126 134.908 50.4343C132.984 50.3144 129.998 50.2715 129.013 52.4852C126.048 59.1539 131.239 58.9918 129.451 64.7695C127.662 70.5472 126.082 70.8783 128.536 71.2955C130.991 71.7128 142.027 74.1756 141.573 70.109C141.295 67.6094 141.794 62.0645 142.22 58.1626Z" fill="#6C63FF"/>
<path d="M129.894 51.8069C130.247 51.6871 130.629 51.6511 131.002 51.7024C131.376 51.7538 131.727 51.8907 132.021 52.0994C132.315 52.3081 132.541 52.5812 132.676 52.891C132.811 53.2009 132.851 53.5367 132.791 53.8643L131.397 61.513C131.159 62.8209 130.529 64.0498 129.572 65.0737L125.045 69.9173C124.98 69.9868 124.899 70.0432 124.807 70.0826C124.715 70.1219 124.614 70.1434 124.512 70.1455C124.409 70.1475 124.308 70.1302 124.214 70.0945C124.119 70.0589 124.035 70.0058 123.967 69.939L122.891 68.8905C122.78 68.7819 122.716 68.6425 122.709 68.4965C122.703 68.3505 122.755 68.2072 122.857 68.0915L123.173 67.7306C125.807 64.7297 127.468 61.1599 127.982 57.3985L128.536 53.3416C128.583 53.0017 128.734 52.6793 128.973 52.409C129.212 52.1386 129.53 51.9305 129.894 51.8069Z" fill="#6C63FF"/>
</g>
<defs>
<clipPath id="clip0_16_8">
<rect width="150" height="100" fill="white"/>
</clipPath>
</defs>
</svg>
