<svg width="25" height="20" viewBox="0 0 25 20" fill="none" xmlns="http://www.w3.org/2000/svg">
<path d="M0 8.75V19.375C0 19.7203 0.279687 20 0.625 20H3.75V7.5H1.25C0.559766 7.5 0 8.05977 0 8.75ZM14.0625 6.875H13.125V5.3125C13.125 5.13985 12.9852 5 12.8125 5H12.1875C12.0148 5 11.875 5.13985 11.875 5.3125V7.8125C11.875 7.98516 12.0148 8.125 12.1875 8.125H14.0625C14.2352 8.125 14.375 7.98516 14.375 7.8125V7.1875C14.375 7.01485 14.2352 6.875 14.0625 6.875ZM19.4434 4.37657L13.1934 0.209769C12.988 0.0729845 12.7468 0 12.5 0C12.2532 0 12.012 0.0729845 11.8066 0.209769L5.55664 4.37657C5.38545 4.4907 5.24508 4.64532 5.14797 4.82671C5.05087 5.00811 5.00004 5.21066 5 5.41641V20H10V14.375C10 14.0297 10.2797 13.75 10.625 13.75H14.375C14.7203 13.75 15 14.0297 15 14.375V20H20V5.4168C20 4.99883 19.791 4.60821 19.4434 4.37657ZM12.5 10C10.7742 10 9.375 8.60078 9.375 6.875C9.375 5.14922 10.7742 3.75 12.5 3.75C14.2258 3.75 15.625 5.14922 15.625 6.875C15.625 8.60078 14.2258 10 12.5 10ZM23.75 7.5H21.25V20H24.375C24.7203 20 25 19.7203 25 19.375V8.75C25 8.05977 24.4402 7.5 23.75 7.5Z" fill="#191970"/>
</svg>
