<svg xmlns="http://www.w3.org/2000/svg" width="100" height="100" viewBox="0 0 100 100">
  <circle cx="50" cy="35" r="25" fill="#007BFF"/>
  <path d="M50 70c-15.5 0-29.78-7.76-38.28-20.77C11.02 46.83 14.58 40.48 20 36c7.52-6.51 18.71-5.74 25.48 1.78 6.77-7.52 17.96-8.29 25.48-1.78 5.42 4.48 8.98 10.83 8.28 13.23C79.78 62.24 65.5 70 50 70zm0-50c-13.81 0-25 11.19-25 25s11.19 25 25 25 25-11.19 25-25S63.81 20 50 20zm0 48.54c-10.77 0-20.71-4.59-27.6-12.03 4.14-4.96 10.41-8.19 17.6-8.19 7.19 0 13.46 3.23 17.6 8.19-6.89 7.44-16.83 12.03-27.6 12.03z" fill="#FFF"/>
</svg>
