<svg xmlns="http://www.w3.org/2000/svg" width="50" height="50" viewBox="0 0 33.867 33.867" id="school"><path fill="#a8d0ff" d="M30.163 13.372H19.579v19.436h10.584a2.64 2.64 0 0 0 2.645-2.645V16.018a2.64 2.64 0 0 0-2.645-2.646z" paint-order="markers fill stroke"></path><path fill="#fff" style="line-height:normal;font-variant-ligatures:normal;font-variant-position:normal;font-variant-caps:normal;font-variant-numeric:normal;font-variant-alternates:normal;font-variant-east-asian:normal;font-feature-settings:normal;font-variation-settings:normal;text-indent:0;text-align:start;text-decoration-line:none;text-decoration-style:solid;text-decoration-color:#000;text-transform:none;text-orientation:mixed;shape-padding:0;shape-margin:0;inline-size:0;isolation:auto;mix-blend-mode:normal" d="M28.6 25.894a1.323 1.323 0 1 0 0-2.644h-3.888a1.323 1.323 0 0 0 0 2.644z" color="#000" font-family="sans-serif" font-weight="400" overflow="visible" paint-order="markers fill stroke"></path><path fill="#a8d0ff" d="M3.704 13.372h10.584v19.436H3.704a2.64 2.64 0 0 1-2.646-2.645V16.018a2.64 2.64 0 0 1 2.646-2.646z" paint-order="markers fill stroke"></path><path fill="#fff" d="M5.267 25.894a1.323 1.323 0 1 1 0-2.644h3.888a1.323 1.323 0 0 1 0 2.644zm0-5.754a1.323 1.323 0 1 1 0-2.645h3.888a1.323 1.323 0 0 1 0 2.645zm23.332 0a1.323 1.323 0 1 0 0-2.645h-3.887a1.323 1.323 0 0 0 0 2.645z" color="#000" font-family="sans-serif" font-weight="400" overflow="visible" paint-order="markers fill stroke" style="line-height:normal;font-variant-ligatures:normal;font-variant-position:normal;font-variant-caps:normal;font-variant-numeric:normal;font-variant-alternates:normal;font-variant-east-asian:normal;font-feature-settings:normal;font-variation-settings:normal;text-indent:0;text-align:start;text-decoration-line:none;text-decoration-style:solid;text-decoration-color:#000;text-transform:none;text-orientation:mixed;shape-padding:0;shape-margin:0;inline-size:0;isolation:auto;mix-blend-mode:normal"></path><path fill="#00a1ff" d="M16.933 3.704c-2.939 0-8.202 3.93-8.202 5.16v21.299a2.64 2.64 0 0 0 2.646 2.645H22.49a2.64 2.64 0 0 0 2.645-2.645v-21.3c0-1.229-5.263-5.159-8.202-5.159z" paint-order="markers fill stroke"></path><path fill="#0067ff" style="line-height:normal;font-variant-ligatures:normal;font-variant-position:normal;font-variant-caps:normal;font-variant-numeric:normal;font-variant-alternates:normal;font-variant-east-asian:normal;font-feature-settings:normal;font-variation-settings:normal;text-indent:0;text-align:start;text-decoration-line:none;text-decoration-style:solid;text-decoration-color:#000;text-transform:none;text-orientation:mixed;shape-padding:0;shape-margin:0;inline-size:0;isolation:auto;mix-blend-mode:normal" d="M16.926 1.058c-.41.002-.81.131-1.145.37L6.918 7.744a1.984 1.984 0 0 0 2.303 3.233l7.712-5.496 7.711 5.496a1.985 1.985 0 0 0 2.305-3.233l-8.863-6.316c-.238-.178-.746-.371-1.16-.37Z" color="#000" font-family="sans-serif" font-weight="400" overflow="visible" paint-order="markers fill stroke">
</path><path fill="#fff" d="M16.933 25.73a3.3 3.3 0 0 0-3.307 3.308v3.77h6.615v-3.77a3.3 3.3 0 0 0-3.308-3.307z" paint-order="markers fill stroke"></path><path fill="#fff" style="line-height:normal;font-variant-ligatures:normal;font-variant-position:normal;font-variant-caps:normal;font-variant-numeric:normal;font-variant-alternates:normal;font-variant-east-asian:normal;font-feature-settings:normal;font-variation-settings:normal;text-indent:0;text-align:start;text-decoration-line:none;text-decoration-style:solid;text-decoration-color:#000;text-transform:none;text-orientation:mixed;shape-padding:0;shape-margin:0;inline-size:0;isolation:auto;mix-blend-mode:normal" d="M12.08 22.555a1.323 1.323 0 1 1 0-2.644h2.3a1.323 1.323 0 0 1 0 2.644zm7.144 0a1.323 1.323 0 1 1 0-2.644h2.3a1.323 1.323 0 0 1 0 2.644zm-7.144-5.622a1.323 1.323 0 1 1 0-2.644h2.3a1.323 1.323 0 0 1 0 2.644zm7.144 0a1.323 1.323 0 1 1 0-2.644h2.3a1.323 1.323 0 0 1 0 2.644z" color="#000" font-family="sans-serif" font-weight="400" overflow="visible" paint-order="markers fill stroke"></path></svg>